<?xml version="1.0" encoding="UTF-8"?>
<!DOCTYPE svg PUBLIC "-//W3C//DTD SVG 1.0//EN" "http://www.w3.org/TR/2001/REC-SVG-20010904/DTD/svg10.dtd">
<!-- Creator: CorelDRAW 2020 (64 Bit) -->
<svg xmlns="http://www.w3.org/2000/svg" xml:space="preserve" width="60.0237mm" height="56.7894mm" version="1.0" style="shape-rendering:geometricPrecision; text-rendering:geometricPrecision; image-rendering:optimizeQuality; fill-rule:evenodd; clip-rule:evenodd"
viewBox="0 0 3189.93 3018.05"
 xmlns:xlink="http://www.w3.org/1999/xlink"
 xmlns:xodm="http://www.corel.com/coreldraw/odm/2003">
 <defs>
  <style type="text/css">
   <![CDATA[
    .fil0 {fill:#FEFEFE}
   ]]>
  </style>
 </defs>
 <g id="Camada_x0020_1">
  <metadata id="CorelCorpID_0Corel-Layer"/>
  <path class="fil0" d="M3189.93 611.7l-278.05 0 0 -242.66 278.05 242.66zm-844.25 515.65l-232.54 -242.66 510.59 -556.09 212.33 0 0 798.75 -490.38 0zm434.77 96.05l-1526.72 0 434.76 1147.57 1091.96 -1147.57zm-1536.83 202.22l5.05 1592.44 515.65 -262.88 -520.7 -1329.56zm5.05 -278.04l0 -1061.63 985.8 1036.35 -985.8 25.28zm-75.83 -50.56l0 -1097.01 -1066.68 40.44 1066.68 1056.57zm-657.2 -530.81l-358.93 -348.82 -156.72 45.5 515.65 303.32z"/>
 </g>
</svg>
