<?xml version="1.0" encoding="UTF-8"?>
<!DOCTYPE svg PUBLIC "-//W3C//DTD SVG 1.1//EN" "http://www.w3.org/Graphics/SVG/1.1/DTD/svg11.dtd">
<!-- Creator: CorelDRAW 2021 (64 Bit) -->
<svg xmlns="http://www.w3.org/2000/svg" xml:space="preserve" width="122.741mm" height="51.4479mm" version="1.1" style="shape-rendering:geometricPrecision; text-rendering:geometricPrecision; image-rendering:optimizeQuality; fill-rule:evenodd; clip-rule:evenodd"
viewBox="0 0 12389.66 5193.21"
 xmlns:xlink="http://www.w3.org/1999/xlink"
 xmlns:xodm="http://www.corel.com/coreldraw/odm/2003">
 <defs>
  <style type="text/css">
   <![CDATA[
    .fil3 {fill:#DF8E16;fill-rule:nonzero}
    .fil0 {fill:#F6B957;fill-rule:nonzero}
    .fil2 {fill:#F6B957;fill-rule:nonzero}
    .fil1 {fill:white;fill-rule:nonzero}
   ]]>
  </style>
 </defs>
 <g id="Camada_x0020_1">
  <metadata id="CorelCorpID_0Corel-Layer"/>
  <path class="fil0" d="M775.15 1166.27l0 -1022.16 214.04 0 0 1022.16 -214.04 0zm1173.23 0l-215.35 -451.65 -2.64 451.65 -211.39 0 0 -977.6c34.35,-18.82 74.87,-33.43 121.55,-43.83 46.68,-10.4 97.33,-15.6 151.94,-15.6 119.79,0 209.62,27.98 269.52,83.94 59.9,55.96 89.85,134.45 89.85,235.49 0,66.35 -19.81,123.56 -59.45,171.59 -39.65,48.04 -89.85,77.51 -150.62,88.4l241.78 457.6 -235.18 0zm-155.89 -900.34c-22.03,0 -42.72,4.45 -62.1,13.37l0 374.39c10.57,3.97 25.99,5.95 46.24,5.95 54.62,0 95.79,-17.33 123.53,-52 27.75,-34.66 41.62,-83.69 41.62,-147.08 0,-67.35 -11.01,-116.63 -33.03,-147.83 -22.02,-31.2 -60.78,-46.8 -116.26,-46.8zm668.53 580.91c14.09,116.88 71.36,175.3 171.75,175.3 37.89,0 72.89,-3.96 105.05,-11.88 32.15,-7.92 58.79,-18.32 79.93,-31.2l46.25 144.11c-29.95,16.85 -66.29,30.71 -109.01,41.61 -42.72,10.89 -91.38,16.33 -145.99,16.33 -108.34,0 -192.68,-37.15 -253.02,-111.43 -60.32,-74.28 -90.49,-176.3 -90.49,-306.05 0,-126.77 28.18,-227.31 84.56,-301.59 56.37,-74.28 135.2,-111.42 236.5,-111.42 101.29,0 176.82,36.64 226.59,109.94 49.75,73.29 74.64,179.27 74.64,317.94l-426.75 68.34zm117.59 -359.54c-87.19,0 -130.8,81.96 -130.8,246.14l248.39 -41.36c0,-70.32 -9.89,-121.83 -29.72,-155.01 -19.82,-33.18 -49.12,-49.77 -87.87,-49.77zm696.29 690.85c-70.47,0 -123.75,-22.04 -159.88,-66.12 -36.11,-44.07 -54.17,-99.3 -54.17,-165.64l0 -430.86 -77.96 0 0 -150.06 77.96 0 0 -170.12 206.11 -59.17 0 229.29 109.66 0 0 150.06 -109.66 0 0 413.02c0,62.4 22.03,93.59 66.06,93.59 11.46,0 25.98,-2.97 43.61,-8.9l0 142.62c-7.92,3.97 -22.25,8.67 -42.94,14.12 -20.7,5.44 -40.3,8.17 -58.79,8.17zm331.62 -934.5c-30.83,0 -56.81,-10.4 -77.95,-31.2 -21.15,-20.79 -31.72,-46.54 -31.72,-77.25 0,-29.72 10.79,-55.22 32.37,-76.51 21.58,-21.3 47.34,-31.95 77.29,-31.95 30.83,0 56.82,10.41 77.95,31.2 21.14,20.8 31.71,46.55 31.71,77.26 0,30.71 -10.57,56.46 -31.71,77.25 -21.13,20.8 -47.12,31.2 -77.95,31.2zm-103.06 922.62l0 -800.8 206.11 0 0 800.8 -206.11 0zm709.5 -650.74c-26.43,-10.9 -52.41,-16.34 -77.95,-16.34 -23.79,0 -43.61,4.45 -59.45,13.37l0 653.71 -206.12 0 0 -756.22c39.64,-21.79 88.3,-36.65 146,-44.58 57.69,-7.91 136.3,-11.88 235.83,-11.88l-38.31 161.94zm420.15 665.59c-100.42,0 -177.93,-38.38 -232.54,-115.13 -54.61,-76.77 -81.91,-177.05 -81.91,-300.86 0,-123.8 27.08,-223.85 81.25,-300.11 54.18,-76.27 131.47,-114.4 231.88,-114.4 100.42,0 178.13,38.13 233.18,114.4 55.06,76.26 82.58,176.3 82.58,300.11 0,123.8 -27.3,224.09 -81.91,300.86 -54.6,76.76 -132.12,115.13 -232.53,115.13zm0 -686.38c-40.96,0 -69.14,24.01 -84.78,72.05 -15.64,48.04 -23.57,113.16 -23.57,195.36 0,81.23 7.93,145.11 23.57,191.66 15.64,46.55 43.82,69.83 84.78,69.83 41.83,0 70.24,-23.03 85.44,-69.08 15.19,-46.06 22.9,-110.19 22.9,-192.4 0,-84.18 -7.71,-149.8 -22.9,-196.86 -15.19,-47.05 -43.61,-70.56 -85.44,-70.56zm1124.34 686.38c-110.1,0 -195.98,-35.16 -257.63,-105.48 -61.65,-70.32 -92.49,-171.84 -92.49,-304.56 0,-126.78 28.85,-227.56 86.32,-302.35 57.47,-74.78 132.79,-112.17 225.93,-112.17 24.45,0 43.38,1 56.6,2.98 12.98,1.97 28.84,5.44 47.34,10.4l0 -369.94 206.1 0 0 1121.7c-33.46,19.8 -71.57,34.66 -114.28,44.58 -42.73,9.9 -95.35,14.85 -157.89,14.85zm66.07 -686.38c-17.4,-5.95 -36.34,-8.92 -56.38,-8.92 -54.39,0 -94.02,24.01 -118.91,72.06 -24.89,48.04 -37.43,115.63 -37.43,202.8 0,89.13 12.11,156.98 36.11,203.53 24,46.55 61.88,69.83 113.63,69.83 28.84,0 49.76,-3.96 62.98,-11.89l0 -527.41zm532.44 352.1c14.09,116.88 71.35,175.3 171.75,175.3 37.88,0 72.89,-3.96 105.05,-11.88 32.14,-7.92 58.79,-18.32 79.93,-31.2l46.24 144.11c-29.94,16.85 -66.29,30.71 -109,41.61 -42.73,10.89 -91.39,16.33 -145.99,16.33 -108.34,0 -192.69,-37.15 -253.02,-111.43 -60.32,-74.28 -90.49,-176.3 -90.49,-306.05 0,-126.77 28.17,-227.31 84.55,-301.59 56.37,-74.28 135.2,-111.42 236.51,-111.42 101.29,0 176.82,36.64 226.58,109.94 49.76,73.29 74.65,179.27 74.65,317.94l-426.75 68.34zm117.59 -359.54c-87.2,0 -130.81,81.96 -130.81,246.14l248.4 -41.36c0,-70.32 -9.9,-121.83 -29.73,-155.01 -19.82,-33.18 -49.11,-49.77 -87.86,-49.77zm994.88 693.82c-57.25,0 -104.16,-4.95 -140.7,-14.85 -36.56,-9.91 -68.94,-25.26 -97.12,-46.06l48.89 -167.89c18.49,13.87 39.85,25.26 64.08,34.18 24.22,8.9 51.74,13.36 82.57,13.36 36.99,0 66.5,-10.89 88.53,-32.68 22.03,-21.79 33.03,-51.5 33.03,-89.15 0,-33.66 -9.25,-61.4 -27.75,-83.19 -18.49,-21.79 -55.71,-46.81 -111.64,-75.03 -55.93,-28.22 -97.98,-67.35 -126.17,-117.37 -28.19,-50.02 -42.28,-102.77 -42.28,-158.23 0,-89.14 26.43,-163.92 79.27,-224.34 52.85,-60.42 122.43,-90.63 208.76,-90.63 48.44,0 89.62,4.96 123.53,14.86 33.91,9.9 63.63,24.76 89.18,44.57l-44.92 147.08c-19.37,-13.86 -40.07,-24.76 -62.1,-32.67 -22.02,-7.93 -46.69,-11.89 -73.99,-11.89 -73.1,0 -109.65,39.12 -109.65,117.37 0,34.66 9.68,62.89 29.06,84.68 19.38,21.78 60.11,48.29 122.22,79.48 62.09,31.21 106.35,71.07 132.78,119.61 26.43,48.52 39.64,104.49 39.64,167.88 0,92.12 -28.41,168.63 -85.22,229.55 -56.82,60.91 -130.14,91.36 -219.98,91.36zm545.66 -937.47c-30.83,0 -56.81,-10.4 -77.95,-31.2 -21.14,-20.79 -31.72,-46.54 -31.72,-77.25 0,-29.72 10.79,-55.22 32.36,-76.51 21.59,-21.3 47.35,-31.95 77.3,-31.95 30.83,0 56.81,10.41 77.96,31.2 21.14,20.8 31.71,46.55 31.71,77.26 0,30.71 -10.57,56.46 -31.71,77.25 -21.15,20.8 -47.13,31.2 -77.96,31.2zm-103.06 922.62l0 -800.8 206.12 0 0 800.8 -206.12 0zm369.94 0l0 -1166.27 206.11 0 0 1166.27 -206.11 0zm800.66 -869.13l-141.37 -112.91 -141.37 112.91 -56.81 -57.94 138.71 -157.49c15.86,-17.83 35.25,-26.74 58.14,-26.74 23.77,0 43.6,8.91 59.45,26.74l138.73 157.49 -55.5 57.94zm-264.24 549.71c14.09,116.88 71.36,175.3 171.75,175.3 37.88,0 72.9,-3.96 105.05,-11.88 32.14,-7.92 58.79,-18.32 79.93,-31.2l46.24 144.11c-29.95,16.85 -66.28,30.71 -108.99,41.61 -42.73,10.89 -91.39,16.33 -146,16.33 -108.34,0 -192.69,-37.15 -253.02,-111.43 -60.32,-74.28 -90.49,-176.3 -90.49,-306.05 0,-126.77 28.18,-227.31 84.55,-301.59 56.38,-74.28 135.21,-111.42 236.51,-111.42 101.28,0 176.82,36.64 226.59,109.94 49.75,73.29 74.64,179.27 74.64,317.94l-426.75 68.34zm117.59 -359.54c-87.2,0 -130.8,81.96 -130.8,246.14l248.39 -41.36c0,-70.32 -9.9,-121.83 -29.72,-155.01 -19.82,-33.18 -49.12,-49.77 -87.87,-49.77zm838.97 678.97l0 -560.11c0,-32.68 -7.92,-59.42 -23.78,-80.23 -15.86,-20.79 -43.16,-31.19 -81.91,-31.19 -19.38,0 -34.79,1.23 -46.24,3.7 -11.46,2.48 -25.1,6.69 -40.96,12.64l0 655.19 -206.1 0 0 -756.22c36.98,-18.83 80.59,-33.43 130.79,-43.83 50.21,-10.4 106.14,-15.6 167.8,-15.6 107.45,0 185.41,22.53 233.85,67.59 48.45,45.07 72.67,107.22 72.67,186.46l0 561.6 -206.11 0zm628.89 14.85c-86.98,0 -157.44,-36.64 -211.16,-109.94 -53.95,-73.29 -80.82,-175.81 -80.82,-307.55 0,-129.74 27.53,-231.02 82.79,-303.81 55.05,-72.81 124.42,-109.2 207.88,-109.2 39.63,0 73.99,5.44 103.05,16.34 29.07,10.89 52.85,24.76 71.35,41.6l-42.27 127.76c-11.46,-9.9 -23.35,-17.57 -35.67,-23.02 -12.34,-5.45 -28.63,-8.17 -48.89,-8.17 -44.04,0 -77.08,21.78 -99.09,65.37 -22.03,43.58 -33.03,106.97 -33.03,190.17 0,81.21 11.45,144.1 34.35,188.68 22.9,44.57 55.04,66.85 96.45,66.85 35.23,0 63.86,-10.89 85.88,-32.68l43.6 139.65c-16.74,17.84 -39.19,31.94 -67.38,42.34 -28.19,10.4 -63.86,15.6 -107.03,15.6zm395.05 -937.47c-30.84,0 -56.82,-10.4 -77.96,-31.2 -21.14,-20.79 -31.71,-46.54 -31.71,-77.25 0,-29.72 10.78,-55.22 32.36,-76.51 21.59,-21.3 47.35,-31.95 77.3,-31.95 30.82,0 56.81,10.41 77.95,31.2 21.15,20.8 31.71,46.55 31.71,77.26 0,30.71 -10.56,56.46 -31.71,77.25 -21.14,20.8 -47.13,31.2 -77.95,31.2zm-103.06 922.62l0 -800.8 206.1 0 0 800.8 -206.1 0zm655.32 14.85c-100.42,0 -177.92,-38.38 -232.54,-115.13 -54.61,-76.77 -81.91,-177.05 -81.91,-300.86 0,-123.8 27.09,-223.85 81.25,-300.11 54.18,-76.27 131.48,-114.4 231.88,-114.4 100.42,0 178.14,38.13 233.18,114.4 55.06,76.26 82.59,176.3 82.59,300.11 0,123.8 -27.3,224.09 -81.92,300.86 -54.61,76.76 -132.11,115.13 -232.53,115.13zm0 -686.38c-40.96,0 -69.14,24.01 -84.78,72.05 -15.64,48.04 -23.56,113.16 -23.56,195.36 0,81.23 7.92,145.11 23.56,191.66 15.64,46.55 43.82,69.83 84.78,69.83 41.84,0 70.23,-23.03 85.44,-69.08 15.19,-46.06 22.9,-110.19 22.9,-192.4 0,-84.18 -7.71,-149.8 -22.9,-196.86 -15.2,-47.05 -43.6,-70.56 -85.44,-70.56z"/>
  <path class="fil1" d="M2768.33 4755.12c57.4,0 127.84,-15.74 200.9,-42.69 93.92,-38.19 292.19,-181.98 349.59,-352.73 5.22,-11.23 7.82,-22.46 10.44,-33.69 138.28,-31.45 273.94,-51.68 367.86,-58.41l-2.6 -31.46c-93.92,6.74 -224.36,26.97 -360.04,56.17l0 -20.22c0,-56.16 -18.26,-110.09 -54.78,-157.27 -80.88,-107.85 -206.11,-193.21 -315.69,-267.35 -138.28,-89.87 -255.67,-170.74 -258.29,-265.11l0 -4.49c0,-65.16 52.19,-134.81 156.53,-213.44 153.94,-116.82 354.83,-186.47 498.32,-186.47 49.57,0 93.93,8.99 125.23,26.96 41.75,22.47 60.02,60.67 60.02,112.34 0,38.19 -10.45,83.13 -31.31,134.8l33.92 11.23c26.08,-58.41 33.92,-107.85 33.92,-146.03 0,-74.14 -36.52,-114.59 -75.66,-137.05 -36.52,-22.47 -88.71,-33.7 -148.73,-33.7 -49.56,0 -104.34,6.74 -161.75,22.47 -125.23,31.45 -253.07,94.36 -357.41,170.75 -114.81,85.37 -169.59,164 -169.59,238.14l0 4.49c2.61,110.09 127.84,195.46 271.33,292.07 109.57,71.89 232.19,155.02 307.86,256.11 33.92,44.95 49.57,92.12 49.57,141.55l-2.61 29.2c-195.67,47.18 -396.57,112.34 -506.15,181.99 -133.05,85.37 -161.75,148.28 -161.75,186.48 0,17.97 5.22,29.19 10.44,38.19 20.86,31.44 70.45,47.18 130.45,47.18zm0 -31.45c-49.57,0 -83.48,-13.48 -99.13,-31.45 -5.22,-6.74 -5.22,-13.48 -5.22,-22.46 0,-33.7 36.51,-89.88 148.71,-161.77 101.75,-65.15 289.6,-128.06 474.84,-172.99l-2.6 15.73c-54.8,159.51 -245.26,296.56 -331.35,332.51 -70.44,26.96 -133.05,40.44 -185.24,40.44zm1158.38 -314.53c52.18,0 122.62,-49.43 219.15,-152.77l-28.7 -20.23c-109.58,119.08 -164.37,141.55 -190.46,141.55 -7.82,0 -13.05,-2.25 -15.66,-4.49 -20.87,-11.23 -26.08,-47.18 -26.08,-87.62 0,-67.41 18.25,-148.28 28.69,-173 0,-4.49 0,-4.49 2.62,-6.73l-33.93 -13.49 -2.6 4.5c-10.45,22.46 -46.97,83.13 -83.49,139.28 -67.84,96.62 -93.93,101.11 -96.53,103.35 -5.22,-2.24 -7.84,-13.48 -7.84,-26.96l2.62 -29.21c15.65,-62.9 65.22,-134.8 96.53,-141.53l2.61 0c5.21,0 10.42,0 18.25,11.22l31.31 -15.72c-20.88,-26.96 -44.35,-26.96 -60,-26.96 -57.41,11.22 -109.59,105.59 -122.63,168.49 -2.6,13.49 -5.21,26.96 -5.21,38.2 0,22.47 7.82,40.44 23.47,47.19 5.22,2.24 13.04,6.73 20.88,6.73l10.43 -2.24c41.75,-11.24 99.13,-87.63 140.88,-155.03l-2.6 58.41c0,56.17 10.43,107.84 44.35,128.06 10.43,6.73 20.86,8.98 33.92,8.98zm-26.09 -415.64c20.87,0 46.97,-8.98 75.66,-40.44l-28.69 -20.23c-20.87,22.47 -33.93,29.21 -46.97,29.21 -13.04,0 -23.48,-6.74 -39.13,-15.73 -15.66,-8.99 -33.92,-22.47 -60.01,-22.47 -20.86,0 -44.34,8.98 -70.44,40.44l31.31 17.98c18.26,-20.22 28.7,-26.96 41.73,-26.96 10.44,0 20.87,6.74 36.53,15.73 15.66,11.23 36.53,22.47 60.01,22.47zm242.63 435.85c28.7,0 57.41,-22.47 86.1,-67.4 10.44,-15.73 20.87,-38.2 31.3,-60.67l23.48 2.25c41.75,0 93.93,-15.73 159.14,-49.42l-18.25 -26.97c-60.01,29.21 -109.58,44.94 -143.5,44.94l-10.43 0c10.43,-31.45 15.64,-60.66 15.64,-85.38 0,-13.48 -2.6,-26.96 -7.82,-33.7 -5.21,-8.98 -15.65,-13.48 -26.08,-13.48 -26.08,2.25 -41.75,38.2 -46.97,49.43 -2.6,11.22 -5.21,26.96 -5.21,38.19 0,24.72 5.21,47.18 26.09,60.67 -7.84,22.46 -18.27,42.69 -31.31,62.91 -23.49,35.95 -41.75,47.17 -52.19,47.17 -5.21,0 -10.44,-6.73 -13.05,-13.48 -2.6,-8.98 -5.22,-20.21 -5.22,-33.69 0,-56.16 28.71,-139.29 88.72,-177.48l-23.48 -24.72c-67.84,44.94 -101.76,134.8 -101.76,199.95 0,17.98 2.61,33.7 7.84,47.18 7.82,22.47 26.07,33.7 46.95,33.7zm96.54 -177.48c-2.61,-6.74 -2.61,-13.49 -2.61,-20.23 0,-20.21 7.83,-42.68 15.66,-53.91 0,13.48 -2.6,42.69 -13.04,74.14zm550.49 496.52c7.82,-67.41 104.36,-431.37 221.77,-820.05l10.43 -40.44c138.28,-15.73 305.26,-17.97 391.35,-17.97l57.4 0 0 -31.45 -65.23 -2.25c-86.08,0 -240.02,4.49 -373.08,17.97 52.17,-170.74 99.13,-319.02 138.27,-431.35 23.49,-67.41 44.36,-116.83 57.41,-152.77 73.04,-11.23 159.13,-22.47 268.73,-31.45 234.8,-17.98 469.61,-20.22 542.66,-20.22l23.48 0 2.6 -31.45 -23.48 0c-75.66,0 -313.07,2.24 -550.49,20.21 -93.93,6.74 -174.79,15.74 -247.85,26.97 7.82,-17.99 15.66,-29.21 20.87,-38.2l36.52 -2.25c-2.6,-13.48 -2.6,-44.93 -28.69,-44.93 -18.27,0 -33.93,11.23 -60.01,71.89 -5.22,6.74 -7.82,13.49 -10.44,22.47 -200.89,33.69 -300.03,85.37 -302.63,155.02l36.51 0c0,-31.45 41.75,-80.87 250.48,-121.32 -10.45,31.45 -26.09,67.41 -39.13,107.85 -41.75,119.07 -96.54,280.83 -153.94,474.04 -153.93,20.23 -185.24,26.96 -195.67,49.44l0 6.73c0,15.73 13.04,26.96 31.3,44.93 31.31,29.21 80.87,74.14 80.87,155.03 0,20.22 -2.6,44.93 -10.42,69.65 -75.68,265.1 -138.29,503.25 -146.11,561.67l36.53 2.25zm146.09 -696.48c-23.48,-74.14 -86.08,-112.33 -101.74,-132.55 18.26,-8.98 91.31,-20.23 148.71,-26.96l-46.97 159.51zm597.46 386.44c52.17,0 125.23,-49.44 242.63,-186.48l-28.7 -20.23c-114.8,137.06 -180.03,175.24 -213.93,175.24l-10.44 -2.24c-10.43,-4.49 -18.26,-24.72 -18.26,-62.91 0,-38.2 7.83,-92.11 36.52,-166.25l-36.52 -8.99c-26.09,67.4 -39.13,128.06 -39.13,175.24 0,47.17 13.04,78.63 39.13,89.86 10.44,4.5 18.26,6.75 28.7,6.75zm20.86 -301.06l18.26 -53.92 -36.52 -8.98 -18.26 53.91 36.52 8.99zm164.36 514.48l33.92 -6.73c-7.82,-26.96 -10.43,-62.91 -10.43,-103.35 0,-101.09 20.86,-238.14 57.4,-399.9 122.62,-164.02 213.93,-388.67 258.29,-510.01 26.09,-78.63 52.18,-157.27 65.23,-220.16 10.44,-47.19 15.66,-74.14 15.66,-89.87 0,-17.98 -5.22,-22.47 -7.82,-26.96 -5.22,-6.74 -13.06,-8.99 -23.49,-8.99 -5.22,0 -7.83,0 -13.04,2.25 -73.06,29.21 -200.9,395.42 -258.29,584.14 -83.5,274.1 -127.85,512.24 -127.85,665.01 0,47.18 2.61,85.38 10.44,114.58zm104.37 -606.6l46.95 -166.25c44.36,-143.79 93.94,-280.84 140.89,-388.67 49.56,-114.58 78.27,-155.02 91.31,-168.5 -2.61,35.95 -26.08,150.52 -83.5,312.28 -36.52,96.61 -104.34,267.35 -195.65,411.14zm125.22 393.18c52.18,0 125.23,-49.44 242.63,-186.48l-28.69 -20.23c-114.81,137.06 -180.03,175.24 -213.94,175.24l-10.44 -2.24c-10.43,-4.49 -18.26,-24.72 -18.26,-62.91 0,-38.2 7.83,-92.11 36.52,-166.25l-36.52 -8.99c-26.09,67.4 -39.13,128.06 -39.13,175.24 0,47.17 13.04,78.63 39.13,89.86 10.44,4.5 18.26,6.75 28.7,6.75zm20.87 -301.06l18.26 -53.92 -36.53 -8.98 -18.26 53.91 36.53 8.99zm-23.48 1055.93c15.66,0 26.09,-17.97 41.74,-62.9 13.04,-40.44 28.7,-98.86 46.96,-170.75 26.09,-107.85 57.41,-233.66 86.1,-366.2 33.92,-74.14 75.66,-146.03 120.01,-220.17 106.96,-170.75 159.14,-188.72 174.8,-188.72l5.22 0c13.04,4.49 20.87,26.96 20.87,62.91 0,26.95 -5.22,58.4 -15.66,94.36l-2.6 4.49 -26.1 13.48c-41.74,24.71 -172.18,105.59 -172.18,146.03 0,11.24 7.82,22.47 28.69,24.72 5.22,2.24 13.04,2.24 18.27,2.24 91.31,0 151.32,-80.87 182.63,-166.25 93.92,-51.68 185.24,-87.63 253.06,-101.1l-7.83 -29.21c-62.6,11.24 -146.09,42.69 -232.19,85.38 7.82,-26.95 10.44,-53.91 10.44,-78.63 0,-42.69 -13.05,-78.63 -44.36,-87.62l-20.86 -4.49c-52.18,0 -117.4,69.65 -203.51,206.69l-60 101.1c28.7,-134.8 57.4,-267.35 75.67,-388.67l-36.53 -4.49c-26.08,159.52 -62.61,343.75 -104.36,518.98 -54.79,121.33 -99.13,244.89 -127.84,372.95 -15.65,65.16 -26.08,121.32 -31.3,161.76l-2.6 42.7c0,20.22 5.22,29.2 18.26,31.44l5.22 0zm31.31 -155.02c10.43,-56.16 28.7,-137.05 52.17,-206.69l-52.17 206.69zm294.81 -536.96l-7.83 0c10.45,-15.73 54.8,-56.16 138.28,-105.59 -28.7,56.17 -73.04,105.59 -130.45,105.59zm451.35 -56.16c70.44,0 182.63,-71.89 294.81,-190.96l-28.7 -20.23c-101.74,107.85 -211.32,179.74 -266.11,179.74 -15.66,0 -20.87,-4.49 -23.49,-8.98 -10.43,-13.49 -15.65,-29.21 -15.65,-47.19 0,-13.48 0,-24.7 5.22,-38.2 44.35,-15.72 101.75,-56.15 138.27,-94.35 33.93,-31.45 41.75,-53.91 41.75,-69.65 0,-11.23 -5.22,-17.97 -10.44,-22.46 -7.82,-6.75 -18.27,-8.99 -28.71,-8.99 -20.86,0 -46.95,11.23 -70.43,29.2 -57.41,47.18 -112.19,132.57 -112.19,204.45 0,24.72 5.21,49.43 23.48,67.41 10.43,13.49 28.69,20.22 52.18,20.22zm-15.66 -170.75c18.27,-38.2 46.97,-74.14 78.27,-98.84 20.87,-15.74 39.13,-20.23 44.34,-20.23l2.61 0c0,2.25 0,17.98 -31.29,49.42 -28.71,26.96 -65.24,53.93 -93.94,69.65zm657.47 485.29l39.13 -235.9c28.7,-168.5 60,-359.47 96.53,-536.96l39.13 -130.31c54.79,-175.23 112.18,-337 164.36,-453.83l2.6 -4.49c15.67,-17.97 31.31,-31.45 46.97,-40.44 13.04,-6.74 28.69,-11.23 44.35,-11.23 5.22,0 13.04,0 20.86,2.25 26.1,6.73 62.61,51.67 91.32,229.16 23.48,132.55 36.52,310.04 49.56,480.79 31.31,415.64 57.4,671.74 148.72,703.21l23.48 4.49c15.65,0 33.92,-8.98 54.79,-22.47 146.1,-116.82 260.89,-575.15 360.04,-981.79 41.74,-166.26 80.87,-323.53 117.4,-438.11 54.78,-170.74 86.09,-175.23 88.7,-175.23l0 -31.45c-75.66,0 -130.45,186.47 -242.62,638.06 -93.94,381.93 -211.33,855.97 -349.6,963.82 -10.45,8.98 -20.88,15.72 -28.71,15.72l-7.82 -2.24c-23.49,-6.74 -54.79,-51.67 -83.49,-217.92 -20.86,-128.06 -31.31,-294.31 -44.35,-458.32 -33.93,-442.6 -62.61,-712.19 -166.98,-739.15l-31.3 -4.5c-20.87,0 -39.13,4.5 -57.4,15.73 54.77,-112.34 86.09,-128.05 93.92,-130.31 2.6,0 5.22,0 7.83,4.49l31.3 -15.72c-13.04,-15.74 -26.08,-20.23 -36.53,-20.23l-15.65 2.25c-44.35,11.23 -96.53,101.1 -148.71,215.68 -60.02,71.89 -112.19,204.45 -164.37,402.15 -15.65,62.91 -31.31,130.32 -44.35,199.95 -73.05,251.63 -138.27,548.19 -140.88,772.86l41.75 0zm1354.06 -314.53c70.44,0 182.62,-71.89 294.81,-190.96l-28.69 -20.23c-101.76,107.85 -211.33,179.74 -266.12,179.74 -15.66,0 -20.87,-4.49 -23.48,-8.98 -10.44,-13.49 -15.65,-29.21 -15.65,-47.19 0,-13.48 0,-24.7 5.21,-38.2 44.34,-15.72 101.75,-56.15 138.28,-94.35 33.92,-31.45 41.73,-53.91 41.73,-69.65 0,-11.23 -5.21,-17.97 -10.42,-22.46 -7.82,-6.75 -18.27,-8.99 -28.71,-8.99 -20.86,0 -46.97,11.23 -70.44,29.2 -57.41,47.18 -112.19,132.57 -112.19,204.45 0,24.72 5.21,49.43 23.48,67.41 10.44,13.49 28.7,20.22 52.18,20.22zm-15.66 -170.75c18.26,-38.2 46.97,-74.14 78.27,-98.84 20.87,-15.74 39.13,-20.23 44.35,-20.23l2.6 0c0,2.25 0,17.98 -31.29,49.42 -28.71,26.96 -65.24,53.93 -93.94,69.65zm20.87 -269.59l180.02 -62.91 -15.66 -29.2 -180.02 62.9 15.66 29.21zm344.38 570.65c20.87,0 44.36,-13.48 80.88,-42.69 31.31,-24.71 67.82,-58.4 112.18,-103.34 75.67,-78.63 146.11,-161.76 159.15,-181.98l-33.92 -13.49c-7.82,13.49 -73.04,92.12 -148.71,168.5 -117.4,121.32 -156.55,137.05 -166.98,139.29l0 -8.98c0,-26.96 18.26,-107.84 120.01,-280.83l-28.69 -15.74c-5.22,0 -36.53,6.74 -70.45,6.74 -18.27,0 -39.13,-2.24 -54.8,-8.98 28.71,-31.45 80.88,-114.58 80.88,-159.51l0 -6.74c0,-17.98 -7.82,-26.96 -15.65,-29.21 -5.22,-2.24 -10.44,-6.73 -18.27,-6.73l-18.26 4.49c-33.93,8.98 -75.66,47.18 -88.7,83.13 -10.44,24.71 -13.04,47.18 -13.04,65.16 0,42.68 23.47,62.91 49.56,76.38 20.86,11.23 46.96,13.48 70.44,13.48l36.53 -2.24 20.87 -2.25c-46.96,87.62 -106.98,204.46 -106.98,262.86 0,8.98 0,15.73 2.6,22.47 5.22,11.23 13.05,15.73 18.27,17.97l13.04 2.25zm-59.99 -361.71c-5.22,-8.99 -7.84,-17.98 -7.84,-31.45 0,-15.73 2.62,-33.7 10.45,-53.92 13.03,-33.69 57.39,-62.91 70.43,-65.15l0 6.73c0,11.23 -5.21,33.7 -23.47,69.65 -15.67,31.46 -36.53,60.66 -49.56,74.14zm427.86 224.67c52.18,0 125.23,-49.44 242.63,-186.48l-28.7 -20.23c-114.8,137.06 -180.02,175.24 -213.93,175.24l-10.44 -2.24c-10.44,-4.49 -18.26,-24.72 -18.26,-62.91 0,-38.2 7.82,-92.11 36.52,-166.25l-36.52 -8.99c-26.09,67.4 -39.13,128.06 -39.13,175.24 0,47.17 13.04,78.63 39.13,89.86 10.44,4.5 18.26,6.75 28.7,6.75zm20.87 -301.06l18.26 -53.92 -36.53 -8.98 -18.26 53.91 36.53 8.99z"/>
  <path class="fil2" d="M1943.79 4292.84l0 -24.93c0,-49.81 6.27,-95.44 18.79,-136.96l-12.52 0 -18.79 112.02 0 37.4 12.52 12.47zm24.87 -274.03l6.26 0 31.12 -6.17 0 -6.25c-41.56,0 -91.28,-6.22 -149.35,-18.68l-6.27 0 0 6.22c40.52,16.66 79.81,24.88 118.24,24.88zm-884.1 217.91l6.25 6.25c53.98,42.6 101.68,65.41 143.24,68.51l6.26 0 0 -6.23c-61.37,-18.64 -113.19,-43.59 -155.74,-74.68l0 6.15zm447.5 301.67c-0.7,-82.97 87.98,-185.4 249.86,-301.67l0 -6.15c-111.11,66.38 -212.65,99.59 -305.16,99.59 -69.37,-4.17 -110.92,-10.4 -124.49,-18.68 0,0 -69.02,27.17 -93.37,31.17 -12.16,1.98 -37.38,1.73 -49.72,0 -22.43,-3.16 -67.48,-13.75 -87.26,-24.95 -95.18,-53.84 -133.68,-128.91 -168.07,-130.77 -62.15,-3.28 -93.44,18.69 -93.44,18.69 0,0 -9.51,-112.39 112.08,-112.09l56.04 12.48c0,0 17.11,-25.12 49.81,-24.94 13.5,0.14 30.13,10.42 49.79,31.18l6.24 0c-95.5,-141.14 -192.99,-210.81 -292.61,-211.69 -163.87,-1.47 -149.4,136.95 -149.4,136.95 0,31.17 16.56,47.77 49.79,49.81l6.17 0 0 -12.42c0,0 -6.03,-18.5 -6.17,-24.93 -0.38,-20.12 11.77,-46.66 37.35,-56.04 30.13,-11.11 57.57,20 62.26,62.28 3.22,28.85 -38.87,106.24 -149.4,62.27 -23.2,-9.26 -65.55,-36.12 -74.76,-118.3 -2.12,-18.64 6.25,-74.76 6.25,-74.76 18.63,-74.68 70.56,-112.08 155.65,-112.08 72.61,0 128.67,18.71 168.12,56.04 47.67,41.52 120.37,126.66 217.91,255.33l6.25 0 -6.25 -43.65c0,0 -1.14,-32.7 0,-43.57 13.57,-130.72 91.29,-192.99 193,-192.99 41.56,0 89.03,7.52 124.5,43.58 36.16,36.64 43.64,79.87 43.64,112.09l0 6.22c0,61.26 -31.29,121.47 -105.89,130.72 -78.76,9.84 -147.97,-40.29 -118.23,-136.94 12.17,-39.73 49.72,-49.81 74.77,-49.81l30.95 6.24 0 6.24c-51.81,0 -87.98,24.49 -93.37,74.67 -3.13,28.91 13.91,67.74 56.16,74.75 106.23,17.61 137.88,-38.64 130.75,-118.32 -7.13,-79.11 -66.59,-118.06 -126.75,-116.57 -127.28,3.08 -165.88,89.59 -165.88,172.61l0 6.24c0,32.14 -2.26,69.79 18.6,99.62 99.29,141.37 248.98,124.54 248.98,124.54 47.82,0 120.49,-18.7 218.04,-56.04l-6.26 -12.47 -43.65 6.23 -6.09 0c-68.5,0 -126.06,-19.4 -130.92,-68.49 -5.92,-63.19 39.64,-95.7 81.03,-93.39 34.08,1.93 41.73,29.06 87.11,49.8 21.9,9.96 99.63,18.7 99.63,18.7 63.29,-14.52 119.44,-33.23 168.13,-56.04l0 -12.47c0,0 -66.24,-10.93 -87.1,-18.7 -73.2,-27.12 -120.32,-56.04 -155.62,-56.04 -21.9,0 -48.86,16.65 -81.03,49.81 0,0 -19.64,-28.4 -12.52,-62.28 13.21,-61.37 59.29,-87.14 105.89,-87.14l24.86 6.24c26.08,-33.23 46.78,-50.27 62.42,-49.81 65.55,1.93 205.34,118.32 205.34,118.32l0 -12.47c-10.44,0 -43.29,-32.2 -37.38,-68.51 5.56,-33.82 20.86,-55.01 62.41,-62.28 24.87,0 54.07,9.58 55.99,37.4 2.26,36.38 -31.12,43.58 -31.12,43.58 -24.87,0 -39.47,-12.32 -37.39,-37.33 0.52,-7.77 18.6,-24.93 18.6,-24.93l0 -6.25c0,0 -64.67,0.98 -50.59,74.75 5.73,29.57 31.99,44.61 94.24,56.04l6.26 0c97.54,-72.63 192.13,-123.45 286.37,-130.79 15.47,-1.14 62.25,0 62.25,0 33.21,3.15 70.59,19.73 112.15,49.81 29.03,33.21 45.9,66.51 43.47,99.62 -5.56,80.26 -42.6,101.47 -93.37,105.83 -79.63,6.96 -97.54,-50.06 -93.37,-80.89 6.26,-46.92 35.64,-73.85 68.51,-68.51 4.87,0.83 18.6,6.22 18.6,6.22l0 6.25c-37.38,0 -64.16,11.44 -68.51,37.33 -0.7,4.62 0,18.71 0,18.71 7.31,41.52 28.17,62.26 62.42,62.26 53.9,-7.27 80.85,-30.06 80.85,-68.51 0,-71.59 -35.3,-113.1 -105.72,-124.54l-6.43 0c-20.69,0 -47.64,8.36 -80.85,24.93 -95.46,48.78 -143.28,100.66 -143.28,155.65 0,41.52 -24.17,76.87 -74.59,74.75 -41.73,-1.8 -65.9,-24.93 -83.64,-56.11 0,0 -22.25,77.51 -22.25,105.93 0,75.69 41.55,112.08 87.1,112.08 31.13,0 65.04,-10.48 74.77,-43.64 2.61,-8.93 0,-37.35 0,-37.35 0,0 -14.78,29.63 -43.64,31.1 -24.87,1.36 -45.55,-11.44 -49.73,-37.33 -3.47,-21.52 12.53,-47.43 43.48,-49.79 46.77,-3.54 68.5,31.16 68.5,62.26 0,56.04 -30.78,96.47 -93.37,93.39 -7.82,-0.4 -31.12,-6.25 -31.12,-6.25 -73.03,-36.37 -71.64,-113.24 -68.51,-155.65 3.31,-43.45 14.61,-82.96 43.65,-118.24l0 -6.3c-49.73,33.23 -74.77,70.63 -74.77,112.14 0,19.68 29.56,116.19 62.25,199.22 5.21,13.06 4.34,42.69 0,56.06 -9.22,29.03 -34.26,37.33 -49.73,37.33 0,47.75 -24.69,98.26 -87.28,112.08 -10.6,2.38 -43.47,0 -43.47,0 -20.86,0 -33.21,-6.22 -37.39,-18.68l0 -6.25c45.55,-30.08 68.51,-59.11 68.51,-87.14l-24.86 -192.98c0,-33.23 4,-58.11 12.35,-74.75l-6.26 0 -87.11 74.75c-128.67,88.17 -193,175.37 -193,261.49l0 31.1c13.57,78.86 50.77,118.3 112.15,118.3 21.73,0 38.26,-10.4 49.73,-31.08l0 -24.94 -37.39 6.23c0,0 -38.42,3.03 -43.47,-24.93 -5.56,-29.56 10.26,-48.79 31.12,-56.04l18.6 0c25.91,0 56.69,20.17 68.51,68.51 2.96,12.08 2.79,37.66 0,49.81 -21.21,92.08 -136.84,96.33 -180.48,74.73 -100.33,-49.67 -106.23,-110.6 -106.76,-165.35z"/>
  <path class="fil2" d="M10300.69 4355.56l0 -24.93c0,-49.81 -6.26,-95.43 -18.78,-136.96l12.52 0 18.78 112.02 0 37.4 -12.52 12.47zm-24.86 -274.02l-6.26 0 -31.12 -6.18 0 -6.24c41.55,0 91.28,-6.23 149.35,-18.69l6.26 0 0 6.23c-40.52,16.66 -79.8,24.88 -118.23,24.88zm884.08 217.91l-6.25 6.24c-53.98,42.6 -101.68,65.41 -143.24,68.51l-6.26 0 0 -6.23c61.38,-18.63 113.2,-43.59 155.74,-74.68l0 6.16zm-447.49 301.66c0.7,-82.97 -87.98,-185.4 -249.85,-301.66l0 -6.16c111.1,66.39 212.64,99.6 305.14,99.6 69.38,-4.18 110.93,-10.4 124.49,-18.69 0,0 69.03,27.17 93.37,31.17 12.17,1.99 37.39,1.73 49.73,0 22.43,-3.16 67.47,-13.75 87.26,-24.94 95.18,-53.85 133.67,-128.91 168.06,-130.77 62.15,-3.29 93.44,18.68 93.44,18.68 0,0 9.51,-112.39 -112.08,-112.08l-56.04 12.47c0,0 -17.11,-25.12 -49.81,-24.93 -13.49,0.14 -30.13,10.42 -49.79,31.18l-6.24 0c95.5,-141.14 192.99,-210.81 292.61,-211.69 163.87,-1.47 149.4,136.95 149.4,136.95 0,31.17 -16.57,47.76 -49.79,49.8l-6.18 0 0 -12.41c0,0 6.04,-18.5 6.18,-24.93 0.38,-20.12 -11.77,-46.66 -37.35,-56.04 -30.13,-11.11 -57.57,20 -62.26,62.28 -3.22,28.85 38.87,106.23 149.4,62.26 23.2,-9.25 65.55,-36.11 74.75,-118.3 2.12,-18.63 -6.24,-74.75 -6.24,-74.75 -18.64,-74.68 -70.56,-112.08 -155.65,-112.08 -72.61,0 -128.67,18.71 -168.12,56.04 -47.67,41.52 -120.37,126.66 -217.91,255.33l-6.24 0 6.24 -43.65c0,0 1.15,-32.7 0,-43.57 -13.57,-130.72 -91.28,-192.98 -193,-192.98 -41.55,0 -89.02,7.51 -124.49,43.57 -36.17,36.63 -43.64,79.87 -43.64,112.08l0 6.23c0,61.25 31.29,121.46 105.89,130.72 78.76,9.84 147.96,-40.29 118.23,-136.95 -12.17,-39.73 -49.73,-49.8 -74.77,-49.8l-30.95 6.24 0 6.24c51.81,0 87.98,24.48 93.37,74.67 3.13,28.91 -13.91,67.73 -56.16,74.75 -106.23,17.61 -137.88,-38.64 -130.75,-118.32 7.13,-79.11 66.59,-118.06 126.75,-116.57 127.28,3.08 165.88,89.59 165.88,172.61l0 6.24c0,32.13 2.25,69.79 -18.6,99.61 -99.29,141.38 -248.99,124.54 -248.99,124.54 -47.81,0 -120.48,-18.7 -218.03,-56.03l6.26 -12.47 43.65 6.22 6.09 0c68.5,0 126.06,-19.4 130.92,-68.48 5.92,-63.19 -39.64,-95.7 -81.03,-93.39 -34.08,1.93 -41.73,29.05 -87.1,49.79 -21.91,9.96 -99.63,18.71 -99.63,18.71 -63.29,-14.53 -119.45,-33.23 -168.14,-56.04l0 -12.47c0,0 66.25,-10.93 87.11,-18.7 73.19,-27.13 120.32,-56.04 155.61,-56.04 21.9,0 48.86,16.64 81.03,49.81 0,0 19.64,-28.41 12.52,-62.28 -13.21,-61.38 -59.28,-87.14 -105.89,-87.14l-24.86 6.24c-26.08,-33.23 -46.78,-50.27 -62.42,-49.81 -65.54,1.93 -205.33,118.32 -205.33,118.32l0 -12.47c10.43,0 43.29,-32.2 37.38,-68.51 -5.56,-33.82 -20.86,-55.01 -62.42,-62.28 -24.86,0 -54.07,9.58 -55.98,37.4 -2.26,36.38 31.12,43.58 31.12,43.58 24.86,0 39.47,-12.32 37.38,-37.33 -0.51,-7.77 -18.6,-24.93 -18.6,-24.93l0 -6.25c0,0 64.68,0.98 50.6,74.75 -5.74,29.56 -32,44.6 -94.24,56.04l-6.26 0c-97.54,-72.63 -192.13,-123.45 -286.37,-130.79 -15.47,-1.14 -62.24,0 -62.24,0 -33.21,3.15 -70.59,19.73 -112.15,49.81 -29.04,33.21 -45.91,66.51 -43.48,99.61 5.57,80.26 42.61,101.48 93.37,105.84 79.63,6.95 97.54,-50.06 93.37,-80.9 -6.26,-46.91 -35.64,-73.84 -68.5,-68.5 -4.88,0.83 -18.61,6.22 -18.61,6.22l0 6.25c37.39,0 64.16,11.44 68.51,37.33 0.7,4.62 0,18.7 0,18.7 -7.31,41.53 -28.16,62.27 -62.42,62.27 -53.89,-7.27 -80.84,-30.07 -80.84,-68.51 0,-71.59 35.29,-113.1 105.71,-124.54l6.44 0c20.68,0 47.63,8.36 80.84,24.93 95.46,48.78 143.28,100.65 143.28,155.65 0,41.52 24.17,76.87 74.59,74.75 41.73,-1.8 65.89,-24.93 83.63,-56.11 0,0 22.26,77.51 22.26,105.93 0,75.69 -41.56,112.08 -87.1,112.08 -31.13,0 -65.04,-10.49 -74.77,-43.65 -2.61,-8.93 0,-37.35 0,-37.35 0,0 14.78,29.64 43.64,31.11 24.86,1.35 45.55,-11.44 49.72,-37.33 3.48,-21.53 -12.52,-47.43 -43.47,-49.79 -46.77,-3.55 -68.5,31.15 -68.5,62.26 0,56.03 30.78,96.46 93.37,93.38 7.82,-0.39 31.12,-6.24 31.12,-6.24 73.02,-36.38 71.63,-113.25 68.5,-155.65 -3.3,-43.45 -14.61,-82.97 -43.64,-118.25l0 -6.29c49.72,33.23 74.77,70.63 74.77,112.13 0,19.68 -29.57,116.2 -62.25,199.23 -5.22,13.05 -4.34,42.68 0,56.05 9.22,29.04 34.25,37.33 49.72,37.33 0,47.75 24.69,98.26 87.28,112.08 10.61,2.38 43.48,0 43.48,0 20.86,0 33.2,-6.22 37.38,-18.68l0 -6.25c-45.55,-30.08 -68.51,-59.11 -68.51,-87.14l24.86 -192.98c0,-33.22 -4,-58.1 -12.34,-74.75l6.26 0 87.1 74.75c128.67,88.17 193,175.37 193,261.49l0 31.1c-13.56,78.86 -50.77,118.3 -112.15,118.3 -21.73,0 -38.26,-10.4 -49.72,-31.09l0 -24.93 37.38 6.23c0,0 38.43,3.03 43.47,-24.93 5.56,-29.56 -10.26,-48.78 -31.12,-56.04l-18.6 0c-25.91,0 -56.68,20.17 -68.51,68.51 -2.96,12.08 -2.78,37.66 0,49.81 21.22,92.08 136.84,96.33 180.48,74.73 100.33,-49.67 106.23,-110.6 106.76,-165.35z"/>
  <path class="fil3" d="M4109.69 1988.83l0 750.27 -78.67 0 0 -750.27 78.67 0zm326.87 235.68l0 95.71c66.92,-72.04 139.62,-108.06 218.31,-108.06 53.97,0 96.21,14.58 126.49,43.74 27.28,25.73 40.83,59.53 40.83,101.38l0 381.82 -75.09 0 0 -355.23c0,-75.99 -37.06,-114.06 -110.95,-114.06 -69.32,0 -135.05,35.67 -197.2,107.03l0 362.27 -74.09 0 0 -514.59 71.71 0zm1017.04 109.1l-71.7 21.61c-22.71,-61.75 -71.3,-92.62 -146.01,-92.62 -45.01,0 -79.87,8.57 -104.37,25.56 -21.11,14.75 -31.47,33.61 -31.47,56.6 0,28.82 10.37,50.09 31.47,63.64 18.72,12.35 51.98,23.16 99.79,32.07l47.82 9.09c73.89,14.75 124.68,34.14 152.37,58.32 25.3,21.78 37.85,52.48 37.85,92.45 0,47.17 -21.12,84.39 -63.54,112 -40.03,26.07 -94.61,39.1 -163.53,39.1 -120.12,0 -198.79,-41.51 -235.64,-124.52l71.71 -23.67c26.49,65.18 81.46,97.77 165.12,97.77 55.38,0 96.22,-10.81 122.51,-32.59 20.31,-16.64 30.47,-37.4 30.47,-62.1 0,-31.9 -10.56,-54.71 -31.47,-68.78 -19.93,-13.03 -56.97,-24.7 -110.94,-34.99l-47.82 -9.61c-70.51,-13.72 -118.71,-33.1 -144.8,-58.31 -21.33,-20.41 -32.07,-48.54 -32.07,-84.4 0,-43.22 19.71,-77.36 58.96,-102.4 36.64,-23.84 86.24,-35.67 148.79,-35.67 107.75,0 179.87,40.48 216.51,121.44zm316.32 -293.32l0 184.22 150.58 0 0 51.46 -150.58 0 0 334.14c0,60.55 29.68,90.92 88.64,90.92 25.7,0 51.59,-2.4 77.68,-7.21l-5.18 52.15c-24.9,3.6 -53.19,5.48 -84.66,5.48 -100.39,0 -150.58,-42.88 -150.58,-128.47l0 -347.01 -102.79 0 0 -51.46 102.79 0 0 -169.63 74.1 -14.59zm391.01 184.22l0 514.59 -74.09 0 0 -514.59 74.09 0zm17.52 -206.86l0 95.71 -109.75 0 0 -95.71 109.75 0zm325.48 22.64l0 184.22 150.58 0 0 51.46 -150.58 0 0 334.14c0,60.55 29.68,90.92 88.64,90.92 25.7,0 51.59,-2.4 77.68,-7.21l-5.19 52.15c-24.89,3.6 -53.18,5.48 -84.65,5.48 -100.39,0 -150.58,-42.88 -150.58,-128.47l0 -347.01 -102.79 0 0 -51.46 102.79 0 0 -169.63 74.1 -14.59zm772.05 184.22l0 514.59 -71.9 0 0 -97.77c-26.7,36.37 -61.35,64.32 -103.78,84.05 -36.65,17.32 -74.3,26.06 -113.13,26.06 -53.78,0 -96.02,-13.89 -126.69,-41.68 -28.89,-25.39 -43.22,-59.69 -43.22,-102.4l0 -382.85 75.29 0 0 363.3c0,71.36 38.04,107.04 114.34,107.04 37.06,0 74.49,-11.5 112.74,-34.65 33.07,-20.07 60.35,-45.28 82.26,-75.47l0 -360.21 74.1 0zm343.01 -184.22l0 184.22 150.58 0 0 51.46 -150.58 0 0 334.14c0,60.55 29.68,90.92 88.64,90.92 25.69,0 51.59,-2.4 77.68,-7.21l-5.19 52.15c-24.89,3.6 -53.18,5.48 -84.65,5.48 -100.39,0 -150.58,-42.88 -150.58,-128.47l0 -347.01 -102.79 0 0 -51.46 102.79 0 0 -169.63 74.1 -14.59zm532.83 171.87c79.67,0 143.01,27.1 190.22,81.31 42.03,48.54 62.95,110.63 62.95,186.28 0,87.82 -27.09,156.77 -81.08,206.86 -46.02,43.22 -103.78,64.83 -173.3,64.83 -81.07,0 -144.81,-27.44 -191.41,-82.33 -41.23,-48.2 -61.95,-110.3 -61.95,-186.28 0,-87.83 26.89,-156.61 80.66,-206.35 45.83,-42.88 103.78,-64.32 173.9,-64.32zm0 52.49c-59.16,0 -104.58,21.44 -136.05,64.15 -28.08,37.74 -42.03,88.51 -42.03,151.98 0,73.59 17.94,129.67 53.78,168.44 31.07,33.1 72.11,49.74 123.1,49.74 58.77,0 103.98,-21.61 135.85,-64.67 28.08,-38.08 42.03,-89.36 42.03,-153.51 0,-72.56 -17.93,-127.96 -53.59,-166.55 -31.06,-33.11 -72.3,-49.57 -123.09,-49.57z"/>
  <g id="_2196644924368">
   <path class="fil2" d="M12378.25 2355.07l-14.84 -21.26c-33.93,-30.13 -67.32,-36.74 -100.12,-19.69l-7.19 3.71 -10.82 7.12c-25.01,27.22 -30.68,54.01 -16.97,80.44l7.11 9.28c22.59,25.86 44.07,33.51 64.46,22.92 22.01,-11.39 29.1,-29.53 21.29,-54.46 -2.5,-4.8 -6.98,-7.56 -13.42,-8.25l-6 3.09c3.04,16.68 0.59,27.13 -7.44,31.31l-5.37 2.76c-11.63,6.06 -23.32,1.16 -35.02,-14.62l-2.17 -4.2c-9.56,-18.38 -3.4,-36.84 18.54,-55.31l15.62 -8.1c32.98,-4.93 56.46,6.01 70.36,32.86l4.65 9c12.85,49.23 -3.17,85.47 -48.01,108.67l-8.41 4.38c-38.42,19.92 -96.73,12.31 -174.87,-22.84 -55.51,-31.04 -90.89,-49.45 -143.8,-54.79l-2522.53 -0.27c-6.55,-0.82 -13.12,-1.26 -19.68,-1.26l-18.96 0c-72.4,0 -152.06,43.25 -238.99,129.66 -85.47,85.06 -148.76,134.8 -189.87,149.27 -35.52,15.88 -65.65,23.84 -90.41,23.84 -64,0 -116.45,-23.07 -149.99,-74.3 -28.26,-43.17 -25.24,-82.01 -25.24,-82.01 0,-56.96 30.86,-100.2 92.52,-129.63 17.28,-4.66 30.13,-7.03 38.55,-7.03l15.42 0c52.31,0 88.05,28.73 107.23,86.19l2.09 23.13 0 7.01c0,36.92 -22.46,63.82 -67.29,80.63 -4.65,2.36 -21.7,3.48 -21.7,3.48 -27.12,0 -47.93,-14.7 -62.41,-44.14l-3.47 -13.31 0 -18.23c6.06,-27.06 18.91,-40.65 38.55,-40.65 21.48,1.88 32.2,9.8 32.2,23.82l0 3.52c0,7.96 -8.4,16.84 -25.19,26.6l-2.13 7.01c0,7.98 7.47,12.89 22.46,14.76l4.87 0c22.01,0 34.86,-16.83 38.56,-50.49 0,-17.74 -11.22,-35.01 -33.62,-51.83 -13.06,-5.62 -23.83,-8.42 -32.26,-8.42l-1.4 0c-35.97,0 -61.66,21.29 -77.1,63.78l-3.49 23.8c0,35.5 21.73,65.67 65.18,90.43 15.41,5.56 30.63,9.09 45.54,10.51 49.54,0 87.15,-27.1 112.84,-81.3 5.61,-17.24 8.43,-32.95 8.43,-46.98 0,-36.41 -13.04,-76.78 -43.44,-105.83 -16.3,-15.52 -42.8,-32.16 -79.91,-41.46 -67.51,-16.86 -159.35,30.28 -196.23,108.74 -6.55,16.37 -9.81,30.86 -9.81,43.48l0 35.73c0,64.94 35.29,117.52 105.83,157.69 34.11,14.96 67.72,22.44 100.88,22.44 90.69,0 187.15,-54.43 289.44,-163.35 77.6,-73.28 128.5,-113.73 152.8,-121.19 36.9,-14.49 67.26,-21.73 91.1,-21.73 43.92,0 84.79,18.93 122.61,56.75 20.14,29 30.18,57.74 30.18,86.17 0,61.29 -31.29,103.77 -93.92,127.6 -14.47,3.27 -26.88,4.9 -37.15,4.9 -28.96,0 -57,-14.94 -84.1,-44.84 -13.55,-19.19 -20.33,-39.5 -20.33,-61 0,-40.62 22.89,-68.67 68.68,-84.1l15.42 -1.39c33.61,0 56.06,17.32 67.28,51.88l1.4 13.31c-3.24,30.39 -18.23,45.54 -44.83,45.54 -16.84,-4.2 -25.26,-11.93 -25.26,-23.12 0,-14.97 11.22,-22.43 33.62,-22.43l2.8 -4.94 0 -3.49c0,-10.72 -8.42,-17.28 -25.19,-19.64l-4.94 0c-28,6.13 -42.02,20.6 -42.02,43.51l0 3.47c0,27.1 14.7,52.71 49.04,58.86 5.33,0.96 21.71,0 21.71,0 32.27,0 60.69,-33.21 67.28,-60.95 1.14,-4.78 1.41,-19.63 1.41,-19.63 0,-44.37 -39.69,-80.31 -77.09,-91.12 -56.88,-16.46 -126.1,29.73 -139.45,82.71 -2.44,9.75 -4.89,39.95 -4.89,39.95 0,45.78 34.94,99.58 77.06,117.72 12.22,5.29 40.66,11.94 51.88,11.94l27.32 0c25.71,0 58.11,-6.05 89.01,-30.16 26.38,-20.54 42.03,-50.01 51.26,-77.34 14.06,27.69 34.35,52.22 61.03,73.48 28.78,15.76 54.1,24.49 76.02,26.11l13.29 0.99c59.13,4.49 124.82,-39.99 197,-133.42 60.17,-65.27 112.7,-96.23 157.4,-92.85l9.78 0.75c52.17,3.93 82.16,31.94 89.95,84.1l-0.78 10.45c-2.35,31.21 -20.26,51.21 -53.7,59.91l-18.2 -1.36c-28.39,-8.69 -41.74,-23.75 -40.15,-45.19l0.35 -4.9c4.78,-19.76 13.88,-29.18 27.46,-28.14l6.3 0.45c9.26,0.72 15.88,9.63 19.71,26.83l7.02 0.48c5.88,-3.28 9.01,-7.73 9.46,-13.33 -2.66,-26.93 -16.83,-41.31 -42.44,-43.25 -23.77,-1.81 -41.13,14.25 -52.12,48.09l-3 11.72c-2.29,30.72 13.94,53.99 48.87,69.72l13.17 2.4 8.36 0.64c38.2,2.9 67.37,-16.93 87.43,-59.45l5.51 -26.29c3.36,-44.29 -18.35,-79.63 -65.1,-106.14 -11.33,-5.54 -28.29,-10.09 -51.01,-13.67 -46.55,-3.53 -97.27,19.6 -152.12,69.36l-59.07 66.5c-0.19,1.86 -3.03,2.59 -8.65,2.18 -4.16,-0.32 -6.24,-16.66 -6.12,-48.95 -18.39,-60.9 -53.68,-93.31 -105.81,-97.24 -42.45,-3.22 -74.16,16.92 -95.25,60.3l-4.93 19.28 -1.17 15.4c4.29,48.58 26.01,74.32 65.15,77.31 29.35,2.17 49.31,-10.82 59.85,-39.1l3.03 -11.71c-1.56,-29.17 -12.39,-44.47 -32.39,-46.02 -9.85,0.19 -15.06,4.25 -15.69,12.18 14.53,12.79 21.48,22.93 20.89,30.4l-0.35 4.88c-0.96,12.58 -10.37,19.6 -28.29,21.04l-10.49 -0.76c-19.56,-1.49 -31.77,-16.92 -36.54,-46.33l0.89 -11.9c12.44,-40.76 36.82,-59.77 73.15,-57.01l4.9 0.37c41.46,3.12 67.46,31.07 78,83.86l0.79 18.33c-3.59,47.06 -32.95,79.27 -88.15,96.68l-23.98 1.01 -13.25 -1.01c-47.11,-3.55 -84.87,-33.79 -113.35,-90.76 -4.12,-12.07 -7.63,-24.71 -10.35,-37.91 0.13,-2.4 0.19,-4.62 0.19,-6.23 0,-37.38 -18.93,-75.93 -56.75,-115.65 -7.96,-6.34 -15.88,-12.1 -23.84,-17.25l2437.07 0.83c0,0 51.84,1.8 68.99,51.89 6.88,20.04 29.82,78.03 -24.88,118.26 0,0 -49.81,39.31 -97.11,-18.46l-5.28 -10.18c-6.83,-27.96 -1.86,-46.27 14.92,-55.01l9 -4.66c16.47,-5.46 27.5,-2.8 33.13,8.01l2.16 4.15c3.3,6.43 0.95,18.06 -7.04,34.95 3.51,6.78 9.71,8.41 18.53,4.84 17.2,-8.91 20.96,-26.6 11.33,-53.11l-7.11 -9.24c-20.1,-21.09 -42.71,-25.11 -67.97,-12.03 -33.61,17.45 -43.14,48.53 -28.55,93.29l6.84 13.21 11.7 15.29c35.16,30.54 70.95,36.33 107.38,17.46 44.79,-23.26 67.77,-65.98 57.12,-126.42 -5.64,-31.94 -16.68,-43.93 -13.06,-45.78 4.8,-2.48 86.1,35.33 86.1,35.33 67.49,23.43 121.3,24.74 161.33,3.98 18.79,-11.76 32.12,-22.25 40.05,-31.44 31.49,-41.2 37.37,-80.85 17.63,-118.86z"/>
   <path class="fil2" d="M11.41 2355.07l14.84 -21.26c33.93,-30.13 67.32,-36.74 100.12,-19.69l7.19 3.71 10.82 7.12c25.01,27.22 30.68,54.01 16.97,80.44l-7.11 9.28c-22.59,25.86 -44.07,33.51 -64.46,22.92 -22.01,-11.39 -29.1,-29.53 -21.28,-54.46 2.49,-4.8 6.96,-7.56 13.4,-8.25l6 3.09c-3.04,16.68 -0.59,27.13 7.44,31.31l5.37 2.76c11.63,6.06 23.32,1.16 35.02,-14.62l2.17 -4.2c9.56,-18.38 3.4,-36.84 -18.53,-55.31l-15.63 -8.1c-32.98,-4.93 -56.46,6.01 -70.36,32.86l-4.65 9c-12.85,49.23 3.17,85.47 48.01,108.67l8.41 4.38c38.42,19.92 96.73,12.31 174.88,-22.84 55.5,-31.04 90.89,-49.45 143.79,-54.79l2522.53 -0.27c6.55,-0.82 13.12,-1.26 19.68,-1.26l18.96 0c72.4,0 152.06,43.25 238.99,129.66 85.47,85.06 148.76,134.8 189.87,149.27 35.52,15.88 65.65,23.84 90.41,23.84 64.01,0 116.45,-23.07 149.99,-74.3 28.26,-43.17 25.24,-82.01 25.24,-82.01 0,-56.96 -30.86,-100.2 -92.52,-129.63 -17.28,-4.66 -30.13,-7.03 -38.55,-7.03l-15.42 0c-52.31,0 -88.05,28.73 -107.23,86.19l-2.09 23.13 0 7.01c0,36.92 22.46,63.82 67.29,80.63 4.65,2.36 21.7,3.48 21.7,3.48 27.12,0 47.93,-14.7 62.41,-44.14l3.47 -13.31 0 -18.23c-6.06,-27.06 -18.91,-40.65 -38.55,-40.65 -21.48,1.88 -32.2,9.8 -32.2,23.82l0 3.52c0,7.96 8.4,16.84 25.19,26.6l2.13 7.01c0,7.98 -7.46,12.89 -22.46,14.76l-4.87 0c-22.01,0 -34.86,-16.83 -38.56,-50.49 0,-17.74 11.22,-35.01 33.62,-51.83 13.06,-5.62 23.83,-8.42 32.26,-8.42l1.4 0c35.97,0 61.66,21.29 77.1,63.78l3.49 23.8c0,35.5 -21.73,65.67 -65.18,90.43 -15.41,5.56 -30.63,9.09 -45.54,10.51 -49.54,0 -87.15,-27.1 -112.83,-81.3 -5.62,-17.24 -8.44,-32.95 -8.44,-46.98 0,-36.41 13.04,-76.78 43.44,-105.83 16.3,-15.52 42.81,-32.16 79.91,-41.46 67.51,-16.86 159.35,30.28 196.23,108.74 6.55,16.37 9.81,30.86 9.81,43.48l0 35.73c0,64.94 -35.29,117.52 -105.83,157.69 -34.11,14.96 -67.72,22.44 -100.88,22.44 -90.69,0 -187.15,-54.43 -289.44,-163.35 -77.6,-73.28 -128.49,-113.73 -152.8,-121.19 -36.9,-14.49 -67.26,-21.73 -91.1,-21.73 -43.92,0 -84.79,18.93 -122.61,56.75 -20.14,29 -30.17,57.74 -30.17,86.17 0,61.29 31.28,103.77 93.92,127.6 14.46,3.27 26.87,4.9 37.14,4.9 28.96,0 57,-14.94 84.11,-44.84 13.54,-19.19 20.32,-39.5 20.32,-61 0,-40.62 -22.89,-68.67 -68.68,-84.1l-15.42 -1.39c-33.61,0 -56.06,17.32 -67.28,51.88l-1.4 13.31c3.24,30.39 18.23,45.54 44.84,45.54 16.83,-4.2 25.25,-11.93 25.25,-23.12 0,-14.97 -11.22,-22.43 -33.62,-22.43l-2.8 -4.94 0 -3.49c0,-10.72 8.42,-17.28 25.19,-19.64l4.94 0c28,6.13 42.02,20.6 42.02,43.51l0 3.47c0,27.1 -14.7,52.71 -49.04,58.86 -5.33,0.96 -21.71,0 -21.71,0 -32.27,0 -60.69,-33.21 -67.28,-60.95 -1.14,-4.78 -1.41,-19.63 -1.41,-19.63 0,-44.37 39.69,-80.31 77.09,-91.12 56.88,-16.46 126.1,29.73 139.45,82.71 2.44,9.75 4.89,39.95 4.89,39.95 0,45.78 -34.94,99.58 -77.06,117.72 -12.22,5.29 -40.66,11.94 -51.88,11.94l-27.32 0c-25.71,0 -58.11,-6.05 -89,-30.16 -26.39,-20.54 -42.04,-50.01 -51.27,-77.34 -14.06,27.69 -34.34,52.22 -61.03,73.48 -28.78,15.76 -54.1,24.49 -76.02,26.11l-13.29 0.99c-59.13,4.49 -124.82,-39.99 -197,-133.42 -60.17,-65.27 -112.7,-96.23 -157.4,-92.85l-9.78 0.75c-52.17,3.93 -82.16,31.94 -89.95,84.1l0.78 10.45c2.35,31.21 20.26,51.21 53.7,59.91l18.2 -1.36c28.4,-8.69 41.74,-23.75 40.15,-45.19l-0.35 -4.9c-4.78,-19.76 -13.88,-29.18 -27.46,-28.14l-6.3 0.45c-9.25,0.72 -15.88,9.63 -19.71,26.83l-7.02 0.48c-5.88,-3.28 -9.01,-7.73 -9.46,-13.33 2.66,-26.93 16.83,-41.31 42.44,-43.25 23.77,-1.81 41.13,14.25 52.12,48.09l3 11.72c2.29,30.72 -13.94,53.99 -48.87,69.72l-13.16 2.4 -8.37 0.64c-38.19,2.9 -67.37,-16.93 -87.43,-59.45l-5.51 -26.29c-3.36,-44.29 18.35,-79.63 65.1,-106.14 11.33,-5.54 28.29,-10.09 51.01,-13.67 46.55,-3.53 97.27,19.6 152.12,69.36l59.07 66.5c0.19,1.86 3.03,2.59 8.65,2.18 4.16,-0.32 6.24,-16.66 6.12,-48.95 18.39,-60.9 53.68,-93.31 105.81,-97.24 42.45,-3.22 74.16,16.92 95.25,60.3l4.93 19.28 1.17 15.4c-4.29,48.58 -26.01,74.32 -65.15,77.31 -29.35,2.17 -49.31,-10.82 -59.85,-39.1l-3.03 -11.71c1.56,-29.17 12.39,-44.47 32.39,-46.02 9.85,0.19 15.06,4.25 15.69,12.18 -14.53,12.79 -21.48,22.93 -20.89,30.4l0.35 4.88c0.96,12.58 10.37,19.6 28.29,21.04l10.49 -0.76c19.56,-1.49 31.77,-16.92 36.54,-46.33l-0.89 -11.9c-12.44,-40.76 -36.82,-59.77 -73.15,-57.01l-4.9 0.37c-41.46,3.12 -67.45,31.07 -78,83.86l-0.79 18.33c3.59,47.06 32.95,79.27 88.15,96.68l23.98 1.01 13.25 -1.01c47.11,-3.55 84.87,-33.79 113.35,-90.76 4.12,-12.07 7.63,-24.71 10.35,-37.91 -0.13,-2.4 -0.19,-4.62 -0.19,-6.23 0,-37.38 18.93,-75.93 56.75,-115.65 7.96,-6.34 15.88,-12.1 23.84,-17.25l-2437.07 0.83c0,0 -51.84,1.8 -68.99,51.89 -6.88,20.04 -29.82,78.03 24.88,118.26 0,0 49.81,39.31 97.11,-18.46l5.28 -10.18c6.83,-27.96 1.86,-46.27 -14.92,-55.01l-9 -4.66c-16.47,-5.46 -27.5,-2.8 -33.13,8.01l-2.16 4.15c-3.3,6.43 -0.95,18.06 7.04,34.95 -3.51,6.78 -9.71,8.41 -18.53,4.84 -17.2,-8.91 -20.96,-26.6 -11.33,-53.11l7.11 -9.24c20.1,-21.09 42.71,-25.11 67.97,-12.03 33.61,17.45 43.14,48.53 28.55,93.29l-6.84 13.21 -11.7 15.29c-35.16,30.54 -70.95,36.33 -107.38,17.46 -44.78,-23.26 -67.76,-65.98 -57.12,-126.42 5.64,-31.94 16.68,-43.93 13.06,-45.78 -4.8,-2.48 -86.09,35.33 -86.09,35.33 -67.5,23.43 -121.31,24.74 -161.34,3.98 -18.79,-11.76 -32.12,-22.25 -40.05,-31.44 -31.49,-41.2 -37.37,-80.85 -17.63,-118.86z"/>
  </g>
 </g>
</svg>
