<?xml version="1.0" encoding="UTF-8"?>
<!DOCTYPE svg PUBLIC "-//W3C//DTD SVG 1.0//EN" "http://www.w3.org/TR/2001/REC-SVG-20010904/DTD/svg10.dtd">
<!-- Creator: CorelDRAW 2020 (64 Bit) -->
<svg xmlns="http://www.w3.org/2000/svg" xml:space="preserve" width="72.0127mm" height="77.1mm" version="1.0" style="shape-rendering:geometricPrecision; text-rendering:geometricPrecision; image-rendering:optimizeQuality; fill-rule:evenodd; clip-rule:evenodd"
viewBox="0 0 1288.93 1379.99"
 xmlns:xlink="http://www.w3.org/1999/xlink"
 xmlns:xodm="http://www.corel.com/coreldraw/odm/2003">
 <defs>
  <style type="text/css">
   <![CDATA[
    .str0 {stroke:#373435;stroke-width:3.58;stroke-miterlimit:22.9256}
    .str3 {stroke:#F58634;stroke-width:3.58;stroke-miterlimit:22.9256}
    .str5 {stroke:#FEB700;stroke-width:3.58;stroke-miterlimit:22.9256}
    .str4 {stroke:red;stroke-width:3.58;stroke-miterlimit:22.9256}
    .str1 {stroke:#FF6600;stroke-width:3.58;stroke-miterlimit:22.9256}
    .str2 {stroke:yellow;stroke-width:3.58;stroke-miterlimit:22.9256}
    .fil14 {fill:#050000}
    .fil2 {fill:#3E0000}
    .fil1 {fill:#490000}
    .fil5 {fill:#760000}
    .fil19 {fill:#870000}
    .fil6 {fill:#920000}
    .fil7 {fill:#C90000}
    .fil13 {fill:#F22C02}
    .fil17 {fill:#F6B051}
    .fil3 {fill:#FB0000}
    .fil16 {fill:#FCD170}
    .fil4 {fill:#FD5800}
    .fil18 {fill:#FDFDFD}
    .fil9 {fill:#FE8700}
    .fil15 {fill:#FEB700}
    .fil8 {fill:#FEFC02}
    .fil11 {fill:#FEFE78}
    .fil10 {fill:#FFFE30}
    .fil12 {fill:#FFFFBC}
    .fil20 {fill:white;fill-rule:nonzero}
    .fil0 {fill:url(#id0)}
   ]]>
  </style>
  <radialGradient id="id0" gradientUnits="userSpaceOnUse" gradientTransform="matrix(-1.09355 -1.27577 1.28679 -0.900546 189 2185)" cx="563.95" cy="770.94" r="472.12" fx="563.95" fy="770.94">
   <stop offset="0" style="stop-opacity:1; stop-color:red"/>
   <stop offset="0.709804" style="stop-opacity:1; stop-color:#B60000"/>
   <stop offset="1" style="stop-opacity:1; stop-color:#6E0000"/>
  </radialGradient>
 </defs>
 <g id="Camada_x0020_1">
  <metadata id="CorelCorpID_0Corel-Layer"/>
  <g id="_2709435729072">
   <path class="fil0 str0" d="M528.68 547.37c-190.56,-129.61 -484.65,112.85 -346.94,375.42 34.64,108.94 126.26,207.82 239.67,326.82 82.12,116.76 196.09,189.95 367.05,58.66 95.07,-95.06 182.62,-170.89 248.05,-291.62 44.13,-86.03 71.51,-138.55 80.45,-253.08 14.67,-131.35 -193.52,-366.48 -415.65,-217.88 -57.54,0.56 -115.08,1.12 -172.63,1.68z"/>
   <path class="fil1" d="M509.41 989.29c2.47,-8.54 23.66,-11.47 34.48,-10.9 17,0.9 15.98,15.82 9.62,30.27 -14.78,4.15 -27.78,3.42 -42.3,-2.36 -0.96,-0.38 -2.04,-1.06 -3.05,-1.59l-21.38 -4.2c1.01,-1.55 2.26,-3.84 2.87,-3.02l10.71 -5.67c1.46,-0.52 8.03,-2.15 9.04,-2.53zm152.59 24.7c-16.03,-2.99 -13.16,1.17 -30.54,1.61 -11.91,0.3 -28.5,-1.71 -41.16,-1.96 1.73,11.36 5.91,16.15 -7.63,17.74 -2.71,-15.05 -8.89,-24.85 -14.1,-38.59 -0.83,-2.18 -1.92,-5.6 -2.65,-7.45 -0.27,-0.7 -0.68,-1.68 -0.93,-2.29l15.31 -13.23c12.76,-3.62 13.12,-4.32 25.55,-2.33 11.78,1.8 21.5,-1.2 31.91,-4.13 0.93,-0.67 2.3,-2.66 2.92,-1.8l24.49 -5.08c5.87,1.34 8.21,7.84 11.46,11.83l12.11 -2.43c9.67,-7.84 11.38,-14.11 24.46,-18.91 12.19,-4.47 28.59,-6.74 44.42,-7.78 8.52,-3.99 61.69,-12.75 74.36,-11.04 4.19,-3.5 -1.94,-2.65 10.06,-4.88 5.12,-0.95 7.35,-0.47 12.24,0.2 5.15,0.72 15.58,3.71 21.97,5.35 25.15,6.42 110.26,31.61 126.9,28.98 18.64,-0.11 45.81,7.05 66.51,10.76 -2.67,19.88 -11.64,32.28 -31.1,35.72 -14.47,2.56 -46.74,7.13 -61.34,4.86l-60.77 2.1c-8.29,-13.7 -7.52,-23.94 -18.87,-35.07 -0.99,48.64 -6.35,37.78 -123.76,39.17 -34.88,0.42 -79.49,-3.26 -111.86,-1.35zm421.85 -82.34c-16.95,-0.18 -36.23,0.53 -52.92,-0.8 -16.57,-1.32 -33.6,-0.41 -30.91,-18.34l93.06 -0.11c-2.08,11.09 -3.37,11.28 -9.22,19.25zm20.52 -23.41c18.55,-2.97 39.11,-3.84 55.04,-10.64 7.99,-3.41 14.01,-7.72 17.78,-14.71l7.52 -23.55c0.25,-1.75 0.96,-2.04 1.61,-2.95 6.57,33.06 5.47,44.19 -19.78,61.17 -16.26,10.94 -49.69,17.45 -71.77,15.41l9.59 -24.74zm52.4 -162.45c-1.16,4.66 -2.86,12.04 -4.39,15.51 -4.44,10.11 -3.07,5.61 -7.52,9.28 -4.53,9.08 4.91,1.41 -5.24,4.28 -0.15,0.04 -9.16,-1.04 -9.74,-1.11l-13.98 -1.1 -0.61 42.5c10.45,0.84 16.43,5.34 23.25,5.97 -8.79,-0.24 -5.24,-1.53 -11.88,-1.47 -22.68,0.21 18.42,-2.07 -5.48,0.52 -5.92,0.64 -7.02,1.71 -8.35,9.74 -3.85,23.29 1.98,17.92 6.04,20.25 12.36,8.68 9.94,-0.13 14.54,15.8l-11.61 3.2c-3.41,1.06 -49.85,4.31 -59.56,4.33 -4.74,-5.55 -2.35,-4.25 -5.18,-9.07 -3.15,-5.37 -0.86,-1.86 -4.09,-6.25l-3.69 -3.79c-0.57,0.72 -1.56,1.6 -1.95,1.97 -0.4,0.37 -1.64,1.53 -2.04,1.9 -0.4,0.37 -1.81,2.42 -2.14,1.79 -0.33,-0.63 -1.53,1.05 -2.19,1.69 -0.83,7.27 -2.69,9.75 -6.31,14.29l-137.66 5.64c-20.07,1.3 -40.84,6.52 -61.56,7.67 -27.4,1.52 -37.23,-9.38 -58.62,-8.6 -17.66,-0.05 -18.45,-5.42 -32.98,-0.15 0.75,0.72 1.9,1.32 2.62,1.69l16.34 6.98c0.44,0.34 1.07,1.05 1.47,1.45 0.43,0.42 0.97,1.27 1.36,1.73l6.02 8.44c-3.84,5.19 7.52,3.99 -9.06,4.1 -9.2,-0.83 -72.23,15.43 -87.97,19.36 -16.85,4.21 -70.2,20.78 -85.51,18.67 -5.68,6.31 -0.85,2.87 -9.41,6.52 -11.45,4.88 -24.72,2.05 -36.08,6.27 -27.14,10.09 -20.74,5.34 -51.03,4.25 -7.07,16.06 -14.77,14.71 -36.5,17.81 -18.82,2.68 -25.52,6.44 -45.18,7.11 -9.66,9.02 -23.83,7.88 -38.91,6.23l-33.72 -1.58 -7.11 -22.34c-13.72,1.66 -4.06,-1.47 -13.61,2.96 -6.87,13.52 -53.18,-8.95 -63.5,-11.36 -14.77,-2.73 -9.17,-4.15 -19.69,-8.13 -12.25,-4.63 -35.23,-1.16 -59.36,-10.42 -3.39,2.97 -5.09,-3.51 -1.99,4.99l7.59 10.99c5.63,5.53 2.68,0.81 7.66,8.82 -21.08,-4.97 -33.94,-19.91 -43.36,-22.14 -10.45,-6.09 -0.47,0.32 -6.78,-5.71l-14.22 -12.07c-10.07,-5.58 -12.62,-4.14 -18.59,-13.45 -4.93,5.32 -3.88,-7.01 -5.16,9.17 -0.05,13.68 6.14,21.76 13.64,30.79 9.53,11.46 14.25,8.54 16.77,25.44 2.13,14.27 10.76,64.66 10.68,72.16 9.86,0.4 4.34,-0.54 7.04,-12.21 0.76,-3.29 0.42,-4.92 1.64,-8.94 2.37,-7.78 -0.18,-2.26 3.22,-6.58 -0.36,-15.11 2.26,-19.31 9.33,-32.23 16.65,-0.54 28.1,10.83 47.62,10.6l13.42 -5.82c6.49,12.33 18.25,15.39 13.96,52.51 1.39,8.27 -0.28,-0.32 1.62,6.66 2.48,9.12 -0.49,-3.07 2.08,6.75 3.75,3.04 6.11,5.15 11.1,9.71 0.18,-0.56 0.3,-2.1 0.32,-1.74 0.02,0.37 0.25,-1.47 0.26,-1.83l-0.87 -22.58c-1.01,-13.27 -1.84,-19.74 -0.35,-33.24 28.61,-1.04 21.07,-0.58 27.41,5.66 10.97,-2.68 1.67,23.39 17.95,31.03l2.17 -33.27c6.94,-0.38 8.53,-1.49 14.7,-0.18 14.78,3.14 4.63,-1.52 12.26,7.25 8.12,-1.82 81.01,8.42 88.48,12.79 7.25,4.23 14.06,21.8 20.27,31.16 7.81,11.78 12.4,23.68 23.32,29.16l-3.8 -54.13 280.57 9.1 9.74 20.89 12.84 10.03c4.98,3.76 -0.26,0.67 6.59,4.44 9.44,-13.02 2.09,-21.44 9.72,-35.91l109.55 -1.69c21.64,-7.47 121.94,-3.45 149.83,-5.18 5.68,-3.42 18.08,-8.08 31.97,-7.43 4.68,12.7 4.64,21.2 2.15,36.81 9.97,-4.95 1.32,3.46 10.66,-8.62 0.04,-0.05 5.21,-9.65 5.57,-10.46 5.01,-11 5.29,-14.24 6.06,-26.8 39.82,-26.8 25.84,-17.39 28.25,-58.03 56.81,-6.07 39.04,23.67 93.09,39.68 -6.24,-15.52 -26.11,-28.47 -31.56,-52.38 15.43,-12.91 41.85,-19.64 49.54,-48.47 -2.65,-9.21 -3.43,-7.86 -3.75,-8.56 -0.39,-0.88 -0.85,-1.59 -1.24,-2.49 -5.75,-13.64 -6.45,-19.37 2.59,-33.4 -1.98,-13.43 -11.26,-25.34 -18.67,-34.87 -6.74,-8.67 -21.78,-19.07 -25.51,-26.04 -6.66,-12.45 -2.01,-36.11 -3.57,-51.61 -1.18,-11.65 -5.36,-33.17 -8.51,-43.37 -2.35,3.01 -2.07,1.76 -4.25,6.92l-3.62 16.06c-1.28,5.85 -3.19,12.98 -5.69,17.35z"/>
   <path class="fil2" d="M569.78 821.44c14.13,2.83 27.5,19.17 30.07,35.06 -6.74,2.99 -21.49,11.24 -30.44,2.49 -14.76,-14.43 4.79,8.84 0.37,-37.55zm-544.45 -61.75c3,-5.02 -3.88,-8.56 25.05,3.12 12.02,4.85 6.59,9.25 21.14,13.48 16.1,4.68 11.76,0.44 27.1,9l23.88 11.87c-2.1,9.29 -3.67,11.66 -13.26,15.83 -10.15,4.41 -12.2,4.12 -21.52,-1.3 -23.26,15.22 -3.72,29.59 -32.71,66.98 -8.96,11.55 -31.4,46.19 -31.62,62.59 12.42,-14.7 33.65,-25.71 51.76,-39.35 -7.24,-4.78 -7.04,5.7 -3.28,-9.29l29.99 -23.3 0.78 23.43 -16.81 5.46c3.46,4.4 5.35,5.58 8.74,11.24 2.99,4.98 2.73,6.51 5.6,11.45 1.28,-16.18 0.23,-3.85 5.16,-9.17 5.97,9.32 8.52,7.87 18.59,13.45l14.22 12.07c6.31,6.03 -3.67,-0.38 6.78,5.71 2.89,-6.79 -7.37,-9.93 13.4,-4.22 5.63,1.55 11.11,4.76 14.72,6.55 -3.09,-8.5 -1.39,-2.02 1.99,-4.99 24.13,9.26 47.11,5.79 59.36,10.42 10.52,3.98 4.92,5.41 19.69,8.13 -8.27,-11.73 10.39,-8.29 23.91,-8.35 14.23,-0.06 26.73,-2.21 40.66,0.3l-1.06 19.41c9.55,-4.42 -0.11,-1.3 13.61,-2.96l7.11 22.34 33.72 1.58c15.08,1.65 29.26,2.79 38.91,-6.23l-63.28 -1.13c-7.67,-12.96 -11.95,-18.25 -10.58,-37.02 32.76,-5.77 16.54,11.39 34.99,25.93 0.53,-0.76 0.99,-2.98 1.16,-2.51 0.17,0.47 0.87,-1.9 1.1,-2.52 15.81,-43.71 7.38,-24.3 81.37,-51.21 33.8,-12.29 66.19,-31.25 107,-38.16 18.31,-12.93 76.01,-12.17 105.23,-5.11l75.34 19.94c13.37,3.82 15.43,1.42 19.35,11.8 16.59,-0.12 5.22,1.09 9.06,-4.1l-6.02 -8.44c-0.4,-0.46 -0.93,-1.31 -1.36,-1.73 -0.4,-0.4 -1.03,-1.1 -1.47,-1.45l-16.34 -6.98c-0.72,-0.37 -1.87,-0.98 -2.62,-1.69 14.53,-5.26 15.32,0.11 32.98,0.15 -4.66,-3.46 -0.21,-1.46 -10.26,-5.76 -11.83,-5.06 -17.45,-1.28 -21.65,-15.57 -7.07,-24.05 2.46,-28.01 -13.18,-38.97 -0.64,0.95 -1.13,2.18 -1.51,3.09 -0.37,0.88 -0.98,1.97 -1.39,3.04 -0.39,1.03 -0.78,1.87 -1.16,2.99l-4.93 20.06c-3.63,8.8 -1.08,2.97 -3.98,7.27l-99.38 -18.74 -59.9 -54.38 -11.06 -1.44 1.51 11.3c5.63,9.1 21.8,39.04 13.51,49.25 -6.47,4.97 -70.67,24.71 -76.91,24.2 -5.12,6.95 0.39,2.3 -8.3,7.46 -0.16,0.1 -10.16,4.22 -11.75,4.87 -14.01,5.7 -12.18,6.13 -28.58,4.08l8.69 10.91c-5.38,10.81 -12.5,10.93 -25.92,9.38l-5 -29.08 12.87 1.15c-4.16,-7.59 -0.09,-1.68 -4.73,-7.01 -7.98,-9.18 -13.33,-11.47 -23.05,-13.5 2.84,18.82 11.05,19.94 10.1,42.31l-11.44 4.93 0.84 -2.5c-12.1,11.33 -25.54,12.76 -44.21,18.17 -19.08,5.54 -82.06,19.15 -103.23,13.76 -15.4,-3.92 -22.37,-21.44 -29.81,-30.62l-3.14 25.98c-17.57,0.62 -27.62,1.01 -36.46,-9.56l-6.4 -9.96c-10.78,-18.2 -2.87,-11.88 -12.95,-15.99 5.69,13.8 2.07,11.35 -1.24,23.49l-25.7 -12.09 -6.62 -3.46c-16.16,-8.55 -25.8,-16.08 -20.92,-29.04 -10.03,-3.27 -9.55,-12.44 -3.38,-28.47 1.31,-3.41 4.66,-10.08 6.69,-12.76 4.74,-6.28 6.51,-6.36 9.68,-8.24 2.85,-4.09 1.27,-2.86 4.76,-6.32 2.99,-2.97 4.44,-3.75 7.33,-5.78 7.58,-5.33 7.47,-5.65 15.53,-7.81 0.39,-8.09 0.76,-15.84 1.39,-23.91 1.13,-14.48 4.87,-12.48 -3.99,-16.35 -18.22,6.45 -10.23,7.37 -31.58,0.67 -34.53,-10.82 -79.79,-18.9 -115.99,-15.63 5.3,8.12 16.9,10.58 25.32,13.57z"/>
   <path class="fil3" d="M757.64 939.19c-20.04,18.42 -34.38,1.78 -55.9,22.12 -12.48,11.79 -30.4,29.63 -28.46,46.46 70.04,0.44 138.16,1.16 208.41,-0.13 16.72,-20.82 3.53,-22.2 9.79,-40.71 25.3,-1.34 21.61,29.68 34.68,31.63 15.99,-2.87 4.38,1.71 11.26,-5.77 5.75,-6.25 5.53,-28.79 3.33,-38.3l-51.72 -15.2c-19.7,-5.84 -33.8,-6.13 -57.02,-11.15 -12.68,-1.71 -65.84,7.05 -74.36,11.04z"/>
   <path class="fil3" d="M562.68 878.32c-8.45,11.81 -54.53,22.79 -68.25,32.07 -0.58,0.39 -1.25,1.09 -1.78,1.5l-12.56 9.49c-7.65,5.66 -0.84,-4.83 -6.02,5.39 4.57,8.64 32.9,31.94 49.73,28.19 24.52,-5.46 -19.27,-11.98 65.32,-11.98 15.3,2.1 68.66,-14.46 85.51,-18.67 15.74,-3.93 78.77,-20.19 87.97,-19.36 -3.93,-10.39 -5.98,-7.98 -19.35,-11.8l-75.34 -19.94c-29.22,-7.06 -86.92,-7.82 -105.23,5.11z"/>
   <path class="fil4 str1" d="M673.42 171.46c0.33,6.16 2.04,13.32 1.27,18.59 -1.63,11.1 1.4,-4.62 -4.71,10.89 -10.57,-12.43 -10.38,-21.75 -16.03,-38.86 -0.95,-0.51 -6.04,-2.44 -6.76,-2.34 -9.7,1.26 -4.11,-4.41 -7.9,9.85 -0.18,0.69 -0.52,1.64 -0.69,2.46l0.71 28.71 15.07 -0.52c1.23,6.38 3.23,10.49 2.78,16.98 -1.41,20.49 -0.78,0.43 -6.85,15.25 -4.51,11.02 -1.03,27.63 -1.29,40.14l-17.16 -1.62c5.58,4.15 -0.38,2.87 12.27,4.01 9.89,-0.93 15.6,-0.36 25.96,-0.77 5.66,-0.23 11.15,-1.57 16.48,-1.35 18.57,0.78 7.77,-0.75 11.74,4.17 4.73,-2.45 3.09,-2.72 3.67,2.93l14.44 30.59c10.63,18.99 -6.24,-2.21 7.82,11.4l3.15 3.05c0.45,0.47 1.09,1.24 1.54,1.73 20.96,22.63 3.45,-1.32 18.45,30.57 8.83,18.77 12,-3.58 10.93,24.51 -0.58,15.31 -4.07,1.41 0.26,20.03 4.76,2.46 7.51,2.84 13.46,5.92l11.08 -32.32 -1.56 -45.15c1.89,-32.56 -23,-68.87 -33.61,-87.5l-9.47 -6.94c7.98,-5.99 -1.15,1.7 9.68,29.81 4.23,10.98 9.72,28.11 11.98,39.14 -15.26,-9 -27.96,-51.3 -31.64,-71.46l-4.4 -60.89c-5.81,6.66 -7.83,14.58 -10.97,26.72 -3.25,12.57 -1.86,20.02 -11.35,28.95 -4.18,-32.71 -14.01,-63.88 -25.15,-90.5 -4.3,6.82 -1.42,3.08 0.91,14.17 0.62,2.96 1.78,8.84 1.44,10.63 -2.23,11.65 4.8,2.86 -5.57,9.04z"/>
   <path class="fil5" d="M1040.97 861.71c0.66,-0.65 1.86,-2.32 2.19,-1.69 0.33,0.63 1.74,-1.42 2.14,-1.79 0.4,-0.37 1.64,-1.53 2.04,-1.9 0.39,-0.37 1.38,-1.24 1.95,-1.97l3.69 3.79c3.23,4.4 0.94,0.88 4.09,6.25 2.83,4.82 0.44,3.52 5.18,9.07 9.71,-0.02 56.16,-3.27 59.56,-4.33 -13.54,0.26 -4.47,1.13 -7.19,-3.94l4.26 -15.06c-4.05,-2.33 -9.89,3.04 -6.04,-20.25 1.33,-8.02 2.43,-9.09 8.35,-9.74 23.91,-2.59 -17.2,-0.3 5.48,-0.52 6.64,-0.06 3.09,1.23 11.88,1.47 -6.82,-0.64 -12.8,-5.13 -23.25,-5.97l0.61 -42.5 13.98 1.1c-14.88,-7.39 -3.06,0.21 -7.49,-7.86 -4.64,-4.35 -3.62,-10.92 -4.68,-19.54 -6.54,-38.24 -15.13,-63.72 -29.26,-95.09 -11.13,-24.7 -38.4,-63.54 -56.31,-71.83 0.78,15.28 11.22,21.91 19.49,36.8 0.36,0.65 0.81,1.47 1.16,2.14 9.86,18.72 7.07,23.12 10.97,34.78 2.91,8.71 -0.36,-0.65 3.03,6.66 9.68,20.84 4.49,28.81 7.42,57.61 4.04,39.72 -9.44,61.25 -12.76,75.03 -2.4,9.97 -4.06,30.46 -6.91,38.98 -5.62,16.81 -13.75,6.38 -13.58,30.31z"/>
   <path class="fil6" d="M556.67 272.44l-9.33 0.97c-7.9,-0.92 -4.92,-1.64 -12.75,-0.16 -8.82,1.66 -2.4,-3.68 -7.26,3.71l39.14 2.33c3.18,3.69 6.55,7.2 7.52,14.31 1.06,7.86 0.43,5.99 -4.51,10.47l24.74 3.71 0.44 3.6 1.56 70.67 0.49 67.71 -1.48 12.19 36.17 0.18 -0.38 -91.66 -0.27 -61.12 65.45 0.72 5.63 -1.7 0.16 -28.42c-0.59,-5.66 1.06,-5.39 -3.67,-2.93l1.31 31.03 -37.98 0.5 -29.24 -2.38 11.72 -31.2c-12.65,-1.14 -6.69,0.14 -12.27,-4.01l-1.63 -58.08 -26.41 -1.39 -6.25 -1.08 -1.12 63.22 -39.79 -1.21z"/>
   <path class="fil7" d="M410.93 984.95c19.66,-0.67 26.36,-4.43 45.18,-7.11 21.74,-3.1 29.43,-1.75 36.5,-17.81 30.29,1.09 23.89,5.84 51.03,-4.25 11.35,-4.22 24.63,-1.39 36.08,-6.27 8.56,-3.65 3.73,-0.2 9.41,-6.52 -84.59,0 -40.8,6.52 -65.32,11.98 -16.83,3.75 -45.16,-19.56 -49.73,-28.19 5.18,-10.21 -1.63,0.28 6.02,-5.39l12.56 -9.49c0.53,-0.42 1.2,-1.11 1.78,-1.5 13.72,-9.28 59.8,-20.26 68.25,-32.07 -40.8,6.91 -73.19,25.87 -107,38.16 -73.99,26.91 -65.56,7.51 -81.37,51.21 -0.22,0.62 -0.93,2.99 -1.1,2.52 -0.17,-0.47 -0.63,1.75 -1.16,2.51 -18.46,-14.54 -2.24,-31.71 -34.99,-25.93 -1.37,18.77 2.91,24.06 10.58,37.02l63.28 1.13z"/>
   <path class="fil8" d="M488.88 307.89l-3.87 19.43c6.51,8.9 6.66,4.08 13.67,16.03 8.33,14.21 17.16,48.17 18.71,64.98l-3.13 0.47c-0.61,0.12 -3.02,0.55 -3.69,0.71 -5.65,1.33 -2.11,-0.67 -6.53,2.06 3.91,28.44 33.59,60.09 60.4,69.82 0.52,-0.78 1.54,-2.64 1.67,-2.26 0.15,0.43 1.1,-2.08 1.27,-2.85 1.9,-8.81 0.5,3.62 0.96,-7.9 -11.25,-4.92 -17.61,-12.18 -22.84,-31.8 -8.16,-30.62 0.12,-53.06 20.96,-70.08 4.44,-3.62 4.74,-4.17 8.9,-7.46 8.73,-6.9 7.33,0.12 11.18,-14.95 2.1,-8.24 2.09,-17.05 -0.61,-24.29l-18.28 -2.01c-2.21,10.29 -1.44,8.61 -10.69,16.52 -9.89,8.46 -4.12,6.06 -17.49,6.82l1.05 -23.59 -9.6 -5.79c-20.39,-3.79 -14.59,-20.66 -22.78,-34.55 -10.97,10.5 -11.62,17.33 -19.27,30.71z"/>
   <path class="fil7" d="M757.64 939.19c-15.83,1.03 -32.23,3.3 -44.42,7.78 -13.08,4.8 -14.79,11.07 -24.46,18.91 -4.59,9.96 -1.18,3.58 -7.34,11.05 -2.39,2.9 -6.24,6.91 -8.96,10.42 -6.64,8.55 -12.05,12.56 -10.46,26.65 32.36,-1.92 76.97,1.76 111.86,1.35 117.41,-1.39 122.76,9.47 123.76,-39.17 11.35,11.14 10.58,21.37 18.87,35.07l60.77 -2.1 14.36 -7.48c28.65,-10.54 16.57,-0.68 23.82,-14.81 4.37,-8.51 4.27,-8.02 8.39,-14.71l-4.74 -2.05c-13.11,-5.72 -12.09,-3.93 -15.91,-12.28 -16.64,2.63 -101.75,-22.55 -126.9,-28.98 -6.39,-1.63 -16.83,-4.63 -21.97,-5.35 -4.89,-0.68 -7.11,-1.16 -12.24,-0.2 -12,2.24 -5.87,1.39 -10.06,4.88 23.22,5.01 37.31,5.3 57.02,11.15l51.72 15.2c2.21,9.51 2.42,32.06 -3.33,38.3 -6.88,7.48 4.72,2.9 -11.26,5.77 -13.07,-1.95 -9.37,-32.97 -34.68,-31.63 -6.26,18.51 6.94,19.88 -9.79,40.71 -70.26,1.29 -138.37,0.57 -208.41,0.13 -1.94,-16.84 15.98,-34.67 28.46,-46.46 21.52,-20.34 35.87,-3.71 55.9,-22.12z"/>
   <path class="fil4 str1" d="M556.38 166.7c4.88,-5.63 0.26,8.67 6.86,-9.77 1.77,67.12 -1.87,31.2 -3.4,60.08 -10.86,-9.49 -0.83,-5.97 -16.04,3.54 -12.49,-19.72 -3.35,11.45 -11.1,-12.42 -9.77,5.92 -16.05,16 -20.48,23.77l-6.01 16.31c-5.33,-5.82 -9.7,10.26 -4.26,-16.03l-7.13 3.56c-14.07,11.61 -27.47,43.05 -34.23,63.6 -11.12,33.77 -8.91,52.23 -3.13,89.21 3.57,-9.56 -3.15,-0.74 6.73,-7.74 1.9,-1.35 8.47,-3.52 11.29,-5.02 -0.04,-26.81 -6.31,-10.04 2.07,-32.78 5.11,-13.87 -8.06,-22.58 11.34,-35.11 7.65,-13.38 8.3,-20.21 19.27,-30.71 8.19,13.9 2.38,30.76 22.78,34.55l63.73 -0.36 -0.44 -3.6 -68.21 1.76 1.32 -32.58c4.86,-7.38 -1.56,-2.05 7.26,-3.71 7.83,-1.48 4.84,-0.76 12.75,0.16 1.85,-5.22 2.47,-7.44 4.71,-12.29l7.02 -11.04c5.21,-30.91 21.91,-77.88 4.17,-107.48l-6.86 24.11z"/>
   <path class="fil8 str2" d="M636.3 343.85l25.53 27.43c13.28,12.29 12.07,9.4 14.51,33.67 4.8,47.74 -18.28,51.97 -25.46,71.27 5.13,3.82 6.49,5.39 13.9,4.62 23.4,-9.24 33.12,-22.72 45.79,-35.88 9.65,-14.95 18.15,-19.76 23.6,-38.87 -10.3,3.77 -12.14,3.98 -16.62,9.96 -2.09,-26.33 11.11,-36.19 1.25,-73.19 -8.68,12.29 -2.27,15.3 -20.91,21.8 -5.34,-17.95 -14.86,-24.53 -14.53,-47.04l-42.83 2.08c-0.5,0.79 -0.95,1.88 -1.18,2.55l-3.03 21.61z"/>
   <path class="fil9 str3" d="M457.45 388.54c4.24,13.66 9,28.92 16.08,41.4 7.1,12.5 16.45,20.89 21.9,30.71 8.49,4.74 2.06,-0.67 7.19,5.09 4.53,5.09 0.42,3.19 5.35,8.02l14.52 12.73 41.95 -3.14 0 -1.98c-26.81,-9.73 -56.49,-41.38 -60.4,-69.82 4.42,-2.73 0.89,-0.73 6.53,-2.06 0.67,-0.16 3.07,-0.59 3.69,-0.71l3.13 -0.47c-1.55,-16.81 -10.38,-50.78 -18.71,-64.98 -7.01,-11.95 -7.16,-7.13 -13.67,-16.03l3.87 -19.43c-19.4,12.53 -6.23,21.24 -11.34,35.11 -8.38,22.74 -2.11,5.97 -2.07,32.78 -2.82,1.5 -9.39,3.68 -11.29,5.02 -9.88,7 -3.16,-1.82 -6.73,7.74z"/>
   <path class="fil7" d="M522.5 486.5c-10.16,1.77 -11.27,3.46 -17.49,7.31 -1.43,14.33 -0.89,12.6 7.1,17.75 0.62,-0.38 1.72,-1.38 2.05,-0.72l165.78 -1.18c9.24,-0.05 19.09,0.45 27.68,0.68 14.26,0.38 14.47,-2.14 20.98,3.36 11.09,-8.22 7.25,-11.05 2.68,-21.11 -8.76,-8.04 -1.48,-2.54 -11.3,-5.89 -21.91,-5.26 -31.48,-3.91 -55.2,-3.93l-100.33 0.58 -41.95 3.14z"/>
   <path class="fil7" d="M154.15 734.19c2.13,13.17 0.91,19.51 -6.58,26.9 8.86,3.87 5.13,1.87 3.99,16.35 -0.63,8.07 -1,15.81 -1.39,23.91l-0.6 32.54 -0.66 1.57c7.1,3.77 3.8,1.33 6.82,9.96 0.04,0.12 2.21,10.77 2.27,11.19 2.13,14.85 3.46,11.37 -2.09,21.93 8.38,3.7 4.6,2.03 8.12,13.29 10.08,4.11 2.17,-2.22 12.95,15.99l6.4 9.96c8.85,10.57 18.9,10.18 36.46,9.56l3.14 -25.98c7.45,9.18 14.41,26.7 29.81,30.62 21.17,5.39 84.15,-8.22 103.23,-13.76 18.67,-5.42 32.1,-6.84 44.21,-18.17 -33.52,-0.08 -23.28,14.31 -36.35,-0.75 -0.7,13.06 -1.95,8.78 -13.07,12.67 -5.43,1.9 -11.78,3.63 -19.88,5.2 -52.51,10.14 -90.82,22.77 -103.68,-33.79 -8.24,0.32 -13.72,-0.06 -17.62,-0.12 -24.19,-0.39 -12.93,-6.95 -24.85,-18.77 -19.66,-19.49 4.98,-0.68 -18.08,-22.17 -10.77,-10.04 -10.01,-75.49 -6.09,-92.7 0.22,-0.96 0.42,-1.73 0.67,-2.67 0.24,-0.93 0.49,-1.7 0.75,-2.62 3.55,-12.51 5.4,-15.09 2.42,-24.98 -0.29,-0.95 -1.36,-1.29 -1.62,-3.17 -0.27,-1.97 -0.88,-2.47 -1.86,-3.23 -2.04,11.54 -0.46,13.21 -6.84,21.26z"/>
   <path class="fil9" d="M696.2 310.08c-4.08,6.98 3.64,1.18 -4.19,5.67 1.72,26.31 17.65,18.32 31.74,22.96l6.77 51.58c13.15,-5.45 1.26,-0.33 9.42,-6.04 0.94,-0.66 4.28,-3.17 5.01,-3.69l5.47 -3.96c-0.62,19.56 -6.35,25.66 -15.43,41.19 -8.05,13.77 -13.25,22.55 -24.42,27.16 -12.67,13.16 -22.39,26.64 -45.79,35.88l0 1.94c23.72,0.02 33.29,-1.33 55.2,3.93 -3.72,-3.04 -0.24,-0.89 -1.57,-7.09l22.07 -19.21c5.97,-9.56 5.55,-6.3 12.97,-14.12 7.19,-7.58 3.92,-7.73 13.91,-15.21l4.68 -23.31c-5.95,-3.08 -8.7,-3.46 -13.46,-5.92 -4.33,-18.61 -0.84,-4.72 -0.26,-20.03 1.07,-28.09 -2.1,-5.74 -10.93,-24.51 -15,-31.89 2.51,-7.93 -18.45,-30.57 -0.45,-0.49 -1.1,-1.27 -1.54,-1.73l-3.15 -3.05c-14.05,-13.61 2.82,7.59 -7.82,-11.4l-14.44 -30.59 -0.16 28.42 -5.63 1.7z"/>
   <path class="fil10 str2" d="M564.45 481.38l0 1.98 100.33 -0.58 0 -1.94c-7.41,0.77 -8.77,-0.8 -13.9,-4.62 7.18,-19.3 30.26,-23.53 25.46,-71.27 -2.44,-24.27 -1.24,-21.38 -14.51,-33.67l-25.53 -27.43c3.72,48.5 22.77,26.84 27.49,68.42 2.92,25.72 -12.81,33.86 -27.72,65.73 -53.23,1.14 -34.46,5.53 -55.5,-15.73 -21.06,-21.28 -18.58,-37.84 -17.29,-70.65 31.14,-19.84 37,-69.19 22.65,-71.85 2.71,7.24 2.71,16.06 0.61,24.29 -3.84,15.07 -2.44,8.06 -11.18,14.95 -4.16,3.29 -4.47,3.84 -8.9,7.46 -20.83,17.01 -29.12,39.46 -20.96,70.08 5.23,19.62 11.59,26.87 22.84,31.8 -0.46,11.53 0.94,-0.9 -0.96,7.9 -0.17,0.78 -1.12,3.28 -1.27,2.85 -0.14,-0.38 -1.15,1.48 -1.67,2.26z"/>
   <path class="fil11 str2" d="M540.53 317.52l27.13 0.24 18.28 2.01c14.35,2.66 8.49,52.01 -22.65,71.85 -1.3,32.81 -3.78,49.37 17.29,70.65 21.04,21.26 2.27,16.87 55.5,15.73 14.9,-31.87 30.63,-40.02 27.72,-65.73 -4.72,-41.58 -23.77,-19.92 -27.49,-68.42l3.03 -21.61c0.23,-0.67 0.68,-1.76 1.18,-2.55l42.83 -2.08 8.66 -1.85c7.83,-4.49 0.11,1.31 4.19,-5.67l-65.45 -0.72 0.27 61.12c8,6.67 1.46,-0.82 5.74,8.98l6.5 13.48c17.35,26.32 5.48,32.43 -1.52,48.63 -5.65,13.07 -4.16,19.55 -8.28,30.64 -12.76,4.39 -23.04,3.68 -37.97,0.63 -5.77,-12.5 -1.13,-0.36 -0.26,-10.89l1.48 -12.19c-22.41,-1.95 -27.67,-60.11 -0.49,-67.71l-1.56 -70.67 -63.73 0.36 9.6 5.79z"/>
   <path class="fil3 str4" d="M624.3 113.47c5.69,6.23 3.19,1.02 7.05,10.87 1.41,3.59 1.91,9.64 2.7,15.04 -0.92,0.74 -2.59,0.02 -3.19,1.52 -6.54,16.31 0.76,-1.34 -5.8,2.88 -7.54,4.86 -4.17,-9.28 -5.67,5.8 -0.45,4.58 7.56,10.9 9.51,12.04 13.48,7.84 1.39,-12.26 12.1,-26.71 8.12,9.08 11.78,16.49 12.95,27.17 5.65,17.11 5.46,26.44 16.03,38.86 6.12,-15.5 3.08,0.21 4.71,-10.89 0.77,-5.26 -0.94,-12.42 -1.27,-18.59 4.91,-29.14 -51.14,-117.69 -69.39,-150.51 -5.81,-10.45 -4.45,-13.3 -14.87,-18.66 -2.34,3.18 -10.42,-2.3 3.54,29.98 4.28,9.9 7.63,16.74 11.96,26.77 7.12,16.46 15.47,35.69 19.64,54.42z"/>
   <path class="fil2" d="M526.22 518.51l7.85 11.83c44.33,2 142.37,-6.02 175.81,2.74l3.31 -13.09 9.58 0.03 5.82 -6.32c-6.51,-5.51 -6.72,-2.98 -20.98,-3.36 -8.59,-0.23 -18.44,-0.73 -27.68,-0.68l-165.78 1.18c-0.33,-0.66 -1.43,0.34 -2.05,0.72 5.22,6.22 6.17,9.05 14.11,6.95z"/>
   <path class="fil12" d="M786.84 485.32l12.93 -5.69 -3.33 14.93c14.96,-11.98 123.51,-250.84 126.14,-257.78 -14.14,6.11 -58.83,102.88 -69.17,121.35 -5.33,9.52 -10.87,19.37 -16.51,29.35l-50.06 97.85z"/>
   <path class="fil13" d="M603.82 211.51l26.41 1.39 1.63 58.08 3.65 -47.37c0.07,0 0.75,0.03 0.81,0.03 0.06,0 0.59,0.09 0.85,-0.01l2.14 -22.88 -0.71 -28.71c0.17,-0.82 0.51,-1.76 0.69,-2.46 3.79,-14.27 -1.8,-8.59 7.9,-9.85 0.72,-0.09 5.81,1.83 6.76,2.34 -1.17,-10.69 -4.83,-18.1 -12.95,-27.17 -10.71,14.45 1.38,34.55 -12.1,26.71 -1.96,-1.14 -9.97,-7.46 -9.51,-12.04 1.49,-15.07 -1.88,-0.94 5.67,-5.8 6.55,-4.22 -0.74,13.43 5.8,-2.88 0.6,-1.5 2.27,-0.78 3.19,-1.52 -0.79,-5.4 -1.29,-11.45 -2.7,-15.04 -3.86,-9.85 -1.36,-4.64 -7.05,-10.87l0.59 16.19c-9.54,-14.33 -16.25,-44.51 -28.45,-63.84 7.17,48.14 27.55,92.53 7.38,145.7z"/>
   <path class="fil12" d="M888.21 503.98c6.11,4.88 18.23,5.68 28.2,7.43 -3.22,-6.98 3.73,-5.84 -3.24,-5.88 2.92,-1.55 159.06,-179.58 161.44,-190.74 -13.18,2.91 -2.65,-1.66 -11.99,9.36l-103.09 108c-11.93,11.69 -53.24,67.26 -71.33,71.84z"/>
   <path class="fil6" d="M527.96 543.68l5.35 7.99c26.2,-10.04 98.48,-6.79 136.87,-7.18 42.43,-0.42 36.75,3.82 39.71,-11.41 -33.44,-8.76 -131.48,-0.75 -175.81,-2.74l-7.85 -11.83 1.74 25.17z"/>
   <path class="fil3" d="M605.87 967.49l-27.62 14.36c2.56,16.16 5.19,16.38 11.74,27.76l50.99 1.19c3.7,-6.96 14.81,-41.26 12.98,-47.28l-16.19 -0.17c-10.41,2.94 -20.13,5.94 -31.91,4.13z"/>
   <path class="fil12" d="M945.26 518.51c7.89,8.01 14.21,9.21 24.63,13.17 4.16,-15.42 78.33,-74.02 94.33,-89.14l91.75 -82.78c5.93,-6.44 1.64,-2.64 4.75,-4.8 -9.74,2.27 -41.97,31.19 -51.14,39.22 -17.5,15.33 -38.42,26.95 -52.99,41.01 -14.73,14.22 -33.3,28.77 -51.12,42.59 -12.2,9.46 -12.89,12.76 -24.84,20.81 -11.7,7.88 -14.19,10.06 -25.31,21.08l-10.06 -1.17z"/>
   <path class="fil2" d="M637.78 963.36l16.19 0.17c1.83,6.02 -9.28,40.32 -12.98,47.28l-50.99 -1.19c-6.55,-11.39 -9.18,-11.6 -11.74,-27.76l27.62 -14.36c-12.43,-1.99 -12.79,-1.3 -25.55,2.33l-15.31 13.23c0.25,0.61 0.66,1.59 0.93,2.29 0.73,1.86 1.82,5.27 2.65,7.45 5.21,13.75 11.39,23.55 14.1,38.59 13.54,-1.59 9.36,-6.38 7.63,-17.74 12.66,0.25 29.25,2.26 41.16,1.96 17.37,-0.43 14.51,-4.59 30.54,-1.61 -1.59,-14.08 3.82,-18.1 10.46,-26.65 2.72,-3.5 6.57,-7.51 8.96,-10.42 6.16,-7.47 2.75,-1.08 7.34,-11.05l-12.11 2.43c-3.24,-3.98 -5.59,-10.49 -11.46,-11.83l-24.49 5.08c-0.63,-0.86 -2,1.13 -2.92,1.8z"/>
   <path class="fil12" d="M380.79 514.06l48.6 1.55c-3.14,-12.66 -16.64,-27.86 -24.77,-38.63 -0.59,-0.79 -2.43,-2.98 -3.06,-3.74 -2.29,-2.82 -5.1,-5.97 -7.49,-9.19 -2.05,-2.77 -4.26,-6.27 -5.07,-7.58l-5.95 -9.82c-5.64,-8.28 -17.16,-23.87 -25.05,-33.5 -8.07,-9.84 -10.05,-18.9 -17.04,-24.94l-47.33 -73.52c-1.21,-0.76 -2.32,-1.27 -3.37,-1.9 -1.12,-0.67 37.64,67.04 36.44,66.39 3,25.52 28.66,51.56 40.1,69.89l20.73 30.14c6.4,9.39 14.6,19.77 20.18,29.58l-26.93 5.27z"/>
   <path class="fil2" d="M977.26 1009.14c14.6,2.27 46.87,-2.3 61.34,-4.86 19.46,-3.45 28.42,-15.84 31.1,-35.72 -20.7,-3.7 -47.87,-10.86 -66.51,-10.76 3.82,8.36 2.8,6.56 15.91,12.28l4.74 2.05c-4.12,6.69 -4.02,6.2 -8.39,14.71 -7.26,14.13 4.82,4.27 -23.82,14.81l-14.36 7.48z"/>
   <path class="fil14" d="M109.57 870.72c-4.88,12.96 4.76,20.5 20.92,29.04l6.62 3.46c5.51,-15.31 9.13,-15.8 18.82,-24.68 5.55,-10.56 4.22,-7.08 2.09,-21.93 -0.06,-0.42 -2.23,-11.07 -2.27,-11.19 -3.02,-8.63 0.28,-6.2 -6.82,-9.96 -16.7,8.1 -36.32,20.83 -39.35,35.27z"/>
   <path class="fil12" d="M832.2 502.08l27.25 0.96 -2.64 -11.9 66.45 -95.46c9.11,-13.82 6.91,-5.76 9.36,-22.99 -16.78,5.76 -44.06,46.11 -53.82,63.04 -7.16,12.43 -15.22,19.84 -23.21,32.05 -5.5,8.41 -5.72,7.42 -10.51,15.03l-12.88 19.27z"/>
   <path class="fil15 str5" d="M710.56 444.96c11.17,-4.61 16.37,-13.4 24.42,-27.16 9.09,-15.53 14.81,-21.63 15.43,-41.19l-5.47 3.96c-0.72,0.52 -4.06,3.03 -5.01,3.69 -8.16,5.7 3.73,0.59 -9.42,6.04l-6.77 -51.58c-14.09,-4.64 -30.02,3.35 -31.74,-22.96l-8.66 1.85c-0.33,22.51 9.19,29.08 14.53,47.04 18.64,-6.5 12.23,-9.51 20.91,-21.8 9.86,37.01 -3.34,46.87 -1.25,73.19 4.48,-5.97 6.32,-6.19 16.62,-9.96 -5.45,19.12 -13.95,23.93 -23.6,38.87z"/>
   <path class="fil12" d="M346.15 521.07l34.64 -7.02c-4.95,-1.37 -13.09,-2.33 -14.96,-3.4l-54.52 -57.75c-11.85,-14.49 -84.01,-105.55 -101.67,-110.28 6.1,27.35 85.05,108.83 96.04,125.39 7.88,11.88 -0.73,4.14 8.16,11.67 9.39,7.95 1.42,-2.13 11.26,7.78 7.86,7.92 22.34,22.67 21.05,33.59z"/>
   <path class="fil11" d="M469.29 524.72l14.47 1.1c-2.13,-14.84 -42.31,-89.06 -55.56,-108.99l-80.97 -136.12c2.06,12.21 56.46,108.64 62.18,119.61 7.39,14.2 13.49,26.56 21.46,40.11 7.62,12.95 38.1,72.91 38.42,84.29z"/>
   <path class="fil14" d="M87.71 811.68c9.32,5.42 11.37,5.71 21.52,1.3 9.59,-4.16 11.16,-6.53 13.26,-15.83l-23.88 -11.87c-15.34,-8.55 -11,-4.31 -27.1,-9 -14.55,-4.23 -9.12,-8.63 -21.14,-13.48 -28.93,-11.68 -22.05,-8.14 -25.05,-3.12 27.57,19.1 45.1,22.49 62.39,51.99z"/>
   <path class="fil12" d="M595.23 461.95c-0.86,10.54 -5.5,-1.6 0.26,10.89 14.93,3.05 25.21,3.76 37.97,-0.63 4.11,-11.09 2.63,-17.57 8.28,-30.64 7,-16.19 18.86,-22.31 1.52,-48.63l-6.5 -13.48c-4.29,-9.8 2.25,-2.31 -5.74,-8.98l0.38 91.66 -36.17 -0.18z"/>
   <path class="fil2" d="M1083.86 931.65c5.85,-7.97 7.14,-8.17 9.22,-19.25l-93.06 0.11c-2.68,17.94 14.34,17.02 30.91,18.34 16.69,1.33 35.98,0.62 52.92,0.8z"/>
   <path class="fil2" d="M1226.59 861.35c-9.04,14.02 -8.34,19.76 -2.59,33.4 0.38,0.9 0.84,1.61 1.24,2.49 0.31,0.71 1.1,-0.65 3.75,8.56 7.36,-11.89 5.83,-8 16.2,-16.49 7,-5.73 9.76,-8.42 15.43,-13.63 8.6,-7.91 23.7,-21.7 28.31,-33.91 -20.92,4.54 -36.41,22.45 -62.34,19.59z"/>
   <path class="fil12" d="M1001.53 548.91c2.87,3.67 0.81,2.44 6.69,7.08 4.6,3.62 6.27,4.03 11.88,7.27 1.13,-9.7 46.67,-38.78 57.32,-45.48l48.26 -33.05c1.15,-0.78 6.83,-4.6 7.58,-5.27l8.29 -10.86c-32.84,6.18 -117.94,83.68 -140.03,80.31z"/>
   <path class="fil12" d="M294.93 1115.28c-4.97,-9.16 -3.97,-7.43 -11.57,-13.54l-121.14 115.98c7.6,-2.75 13.11,-7.27 18.94,-12.2l48.16 -39.32c19.31,-14.95 54.12,-46.92 65.61,-50.92z"/>
   <path class="fil14" d="M594.22 307.77l-24.74 -3.71c4.94,-4.48 5.57,-2.61 4.51,-10.47 -0.96,-7.12 -4.34,-10.62 -7.52,-14.31l-39.14 -2.33 -1.32 32.58 68.21 -1.76z"/>
   <path class="fil7" d="M399.42 902.53l11.44 -4.93c0.95,-22.37 -7.27,-23.48 -10.1,-42.31 9.72,2.03 15.07,4.32 23.05,13.5 4.64,5.33 0.57,-0.57 4.73,7.01 6.04,1.84 5.83,1.68 9.36,7.64 16.4,2.05 14.57,1.63 28.58,-4.08 1.6,-0.65 11.59,-4.77 11.75,-4.87 8.69,-5.16 3.18,-0.51 8.3,-7.46 -17.1,1.21 -18.2,6.54 -33.47,8.98 -6.41,-0.61 -5.45,-5.1 -16.85,-9.51 -24.36,-9.41 -36.32,-36.49 -50.62,-20.17 -10.12,11.55 23.65,14.18 13.82,56.19z"/>
   <path class="fil12" d="M256.41 1075.4l-4.13 -5.68c-5,-4.55 -7.35,-6.66 -11.1,-9.71 -3.48,18.77 -103.79,69.69 -111.3,89.65 12.52,-0.84 105.33,-70.08 126.54,-74.27z"/>
   <path class="fil12" d="M291.07 541.15c9.08,-3.29 24.67,-7.27 30.83,-14.89l-14.44 2.17c-9.16,-10.6 -24.71,-21.52 -35.35,-30.15 -29.96,-24.32 -95.9,-101.34 -117.72,-104.33 8.48,30.43 135.38,122.68 136.68,147.2z"/>
   <path class="fil12" d="M978.31 1123.21l93.67 72.24c7.85,6.92 6.77,10.1 21.64,15.34l-50.6 -47.81c-14.7,-14.18 -34.22,-35.77 -53.65,-47.21l2.14 -10.82 -13.2 18.26z"/>
   <path class="fil7" d="M254.07 958.85c10.32,2.41 56.63,24.87 63.5,11.36l1.06 -19.41c-13.93,-2.51 -26.43,-0.36 -40.66,-0.3 -13.52,0.06 -32.18,-3.38 -23.91,8.35z"/>
   <path class="fil8" d="M631.86 270.98l17.16 1.62c0.26,-12.51 -3.22,-29.12 1.29,-40.14 6.06,-14.82 5.44,5.24 6.85,-15.25 0.45,-6.5 -1.55,-10.6 -2.78,-16.98l-15.07 0.52 -2.14 22.88c-0.27,0.1 -0.79,0.01 -0.85,0.01 -0.06,-0 -0.74,-0.03 -0.81,-0.03l-3.65 47.37z"/>
   <path class="fil9" d="M566.93 258c-3.64,8.1 -5.1,8.63 -10.26,14.43l39.79 1.21 1.12 -63.22c-10.14,11.49 -13.67,32.58 -30.64,47.57z"/>
   <path class="fil2" d="M644.13 274.98l-11.72 31.2 29.24 2.38c0.58,-0.91 1.92,-3.73 2.21,-4.49l6.29 -25.21 28.16 -1.83c-3.98,-4.91 6.82,-3.39 -11.74,-4.17 -5.33,-0.23 -10.82,1.12 -16.48,1.35 -10.36,0.42 -16.07,-0.16 -25.96,0.77z"/>
   <path class="fil11" d="M740.48 460.4c6.73,4.49 3.94,5.43 0.1,15.98 -1.23,3.38 -1.92,5.8 -3.59,8.92 -4.96,9.28 -0.89,2.8 -5.72,7.29 4.57,10.06 8.41,12.89 -2.68,21.11l-5.82 6.32 0.68 8.29 23.25 -8.48c-9.59,-5.52 -5.14,0.37 -5.74,-10.62 -0.02,-0.36 2.49,-9.16 2.95,-10.44l23.44 -67.7c-9.99,7.47 -6.72,7.63 -13.91,15.21 -7.41,7.82 -7,4.56 -12.97,14.12z"/>
   <path class="fil13 str4" d="M556.38 166.7c-2.95,4.13 -22.57,35.86 -23.68,41.42 7.75,23.87 -1.39,-7.3 11.1,12.42 15.21,-9.51 5.18,-13.03 16.04,-3.54 1.54,-28.87 5.17,7.04 3.4,-60.08 -6.6,18.45 -1.98,4.14 -6.86,9.77z"/>
   <path class="fil14" d="M661.65 308.56l37.98 -0.5 -1.31 -31.03 -28.16 1.83 -6.29 25.21c-0.3,0.76 -1.63,3.58 -2.21,4.49z"/>
   <path class="fil7" d="M509.41 989.29c-1.01,0.38 -7.58,2.01 -9.04,2.53l-10.71 5.67c-0.61,-0.82 -1.86,1.47 -2.87,3.02l21.38 4.2 43.24 1.68 -0.35 -21.65 -41.64 4.54z"/>
   <path class="fil12" d="M596.71 449.75l-0.49 -67.71c-27.18,7.6 -21.92,65.77 0.49,67.71z"/>
   <path class="fil14" d="M569.78 821.44c4.42,46.38 -15.13,23.12 -0.37,37.55 8.95,8.75 23.7,0.5 30.44,-2.49 -2.57,-15.89 -15.94,-32.23 -30.07,-35.06z"/>
   <path class="fil16" d="M728.51 233.34c3.68,20.15 16.38,62.45 31.64,71.46 -2.26,-11.03 -7.76,-28.16 -11.98,-39.14 -10.83,-28.11 -1.7,-35.79 -9.68,-29.81l9.47 6.94 -0.4 -16.03 -19.05 6.58z"/>
   <path class="fil12" d="M937.96 1169.34c23.51,9.64 32.84,36.98 54.74,44.66 -5.4,-18.61 -11.64,-20.75 -20.96,-31.54 -6.93,-8.03 -12.99,-15.58 -21.72,-25.29 -7.9,5.4 -6.67,3.67 -12.05,12.17z"/>
   <path class="fil2" d="M210.09 999.91l2.39 10.86c5.26,5.43 -0.6,-5.53 6.17,7.94 2.82,5.6 2.03,5.24 4.13,11.74 5.79,4.66 1.11,1.52 5.53,7.29 5.82,7.59 1.29,3.54 9.16,8.86 4.28,-37.12 -7.47,-40.18 -13.96,-52.51l-13.42 5.82z"/>
   <path class="fil14" d="M437.9 883.45c-3.53,-5.95 -3.33,-5.8 -9.36,-7.64l-12.87 -1.15 5 29.08c13.42,1.55 20.55,1.43 25.92,-9.38l-8.69 -10.91z"/>
   <path class="fil2" d="M509.41 989.29l41.64 -4.54 0.35 21.65 -43.24 -1.68c1.01,0.53 2.09,1.21 3.05,1.59 14.52,5.78 27.52,6.5 42.3,2.36 6.36,-14.45 7.38,-29.37 -9.62,-30.27 -10.82,-0.57 -32.02,2.36 -34.48,10.9z"/>
   <path class="fil14" d="M75.14 901.9l10.68 -3.7 16.81 -5.46 -0.78 -23.43 -29.99 23.3c-3.75,15 -3.95,4.52 3.28,9.29z"/>
   <path class="fil15" d="M567.66 317.77l-27.13 -0.24 -1.05 23.59c13.37,-0.76 7.59,1.64 17.49,-6.82 9.25,-7.91 8.48,-6.23 10.69,-16.52z"/>
   <path class="fil14" d="M154.15 734.19c6.38,-8.05 4.8,-9.72 6.84,-21.26l-0.43 -0.93c-12.18,-6.46 -14.85,-12.02 -31.92,-15.79 4,9.62 7.24,10.46 13.71,19.56 5.57,7.84 7.03,10.24 11.8,18.42z"/>
   <path class="fil11" d="M783.13 375.44c10.68,-9.96 14.66,-31.43 17.11,-45.83 -12.56,5.19 -2.75,-2.52 -10.18,10.29l-8.5 -9.61 1.56 45.15z"/>
   <path class="fil12" d="M719.98 486.7c9.81,3.35 2.53,-2.15 11.3,5.89 4.83,-4.49 0.76,1.99 5.72,-7.29 1.67,-3.12 2.36,-5.54 3.59,-8.92 3.84,-10.55 6.63,-11.49 -0.1,-15.98l-22.07 19.21c1.32,6.21 -2.15,4.06 1.57,7.09z"/>
   <polygon class="fil11" points="786.84,485.32 776.16,509.36 807.4,503.55 795.23,502.97 796.43,494.55 799.77,479.62 "/>
   <path class="fil17" d="M494.81 235.73l7.13 -3.56c-5.44,26.29 -1.07,10.21 4.26,16.03l6.01 -16.31 -7.31 -12.16c-9.49,8.52 -5.99,3.8 -10.1,16z"/>
   <path class="fil16" d="M505.01 493.81c6.21,-3.84 7.32,-5.54 17.49,-7.31l-14.52 -12.73c-4.94,-4.83 -0.82,-2.93 -5.35,-8.02 -5.13,-5.77 1.3,-0.35 -7.19,-5.09 6.42,13.99 9.29,17.32 9.58,33.16z"/>
   <path class="fil6" d="M549.94 793.6l-1.51 -11.3 11.06 1.44c-2.71,-4.23 -1.56,-5.48 -11.13,-10.77 -3.12,-1.73 -6.67,-2.86 -10.01,-3.99 0.32,12.03 3.11,16.27 11.58,24.62z"/>
   <path class="fil11" d="M547.34 273.41l9.33 -0.97c5.16,-5.81 6.62,-6.33 10.26,-14.43l-7.5 1.99 -0.35 -9.92 -7.02 11.04c-2.24,4.85 -2.86,7.08 -4.71,12.29z"/>
   <path class="fil18" d="M723.46 528.31l-0.68 -8.29 -9.58 -0.03 -1.77 17.56c7.18,-2.78 1.01,1.89 7.34,-3.11 9.96,-7.86 1.65,-0.25 4.69,-6.12z"/>
   <path class="fil19" d="M762.98 1011.44c5.57,-3.65 12.43,-5.64 20.23,-5.64l0.96 0c0.27,0 0.51,0 0.78,0.01 29.84,1 52.23,23.22 60.48,50.72 3.3,11.02 4.53,22.27 4.82,33.74 0.01,0.39 0.01,0.72 0,1.1 -0.32,14.14 -2.72,27.87 -8.48,40.87 -2.69,6.08 -6.12,11.85 -10.26,17.06 -11.3,14.26 -26.96,22.29 -45.18,22.29 -4.7,0 -9.39,-0.44 -13.98,-1.47 -13.31,-2.7 -23.67,-10.6 -31.23,-21.69 -8.11,-11.9 -12.53,-25.26 -13.47,-39.38 -3.2,10.56 -5.9,21.34 -6.96,32.32 -1.24,12.89 -7.98,23.68 -19.42,29.97 -0.61,0.33 -1.13,0.6 -1.77,0.88 -5.04,2.24 -10.2,3.45 -15.72,3.45 -7,0 -13.5,-2.06 -18.95,-5.69 -0.61,0.34 -1.23,0.66 -1.87,0.96 -4.64,2.28 -9.52,3.53 -14.73,3.53 -5.51,0 -10.89,-1.4 -15.72,-3.9 -3.63,1.99 -7.71,3.31 -12.1,3.77 -0.85,0.09 -1.58,0.13 -2.44,0.13l-1.68 0c-10.2,0 -19.31,-4.42 -25.42,-11.82 -7.27,4.64 -15.23,8.17 -24.05,10.32 -3.26,0.93 -6.6,1.49 -9.97,1.77 -5.36,11.62 -17.2,19.91 -30.62,19.91 -17.12,0 -28.55,-12.39 -37.94,-25.03 -3.45,-4.64 -6.99,-9.21 -10.64,-13.71l0.32 11.12c0.01,0.24 0.01,0.44 0.01,0.68 0,18.32 -12.01,34.86 -30.93,36.89 -0.87,0.09 -1.61,0.13 -2.48,0.13l-0.72 0c-14.5,0 -26.6,-8.82 -31.92,-22.17 -2.93,-6.94 -2.92,-12.14 -3.38,-19.4 -0.02,-0.29 -0.03,-0.54 -0.04,-0.82 -0.81,-29.7 -1.93,-58.79 -1.93,-88.54 0,-31.92 1.68,-63.38 4.27,-95.09 -7.88,-6.18 -12.98,-15.74 -13.37,-26.33 -13.87,-2.72 -24.69,-13.75 -27.18,-28.07 -0.07,-0.38 -0.12,-0.72 -0.17,-1.1 -0.75,-6.01 -1.53,-12.01 -2.02,-18.05 -0.9,-11.03 -1.6,-22.08 -2.13,-33.13 -7.66,-1.95 -14.32,-6.63 -19.05,-13.31 -3.8,-5.24 -6.67,-10.86 -9.01,-16.89 -5.62,-14.46 -8.66,-29.32 -11.33,-44.55 -0.99,-5.66 -1.85,-11.34 -2.64,-17.03l-2.14 0.11c-5.53,18.48 -10.76,37.05 -15.63,55.72 -0.99,4.21 -2.34,8.28 -4,12.27 -0.1,0.24 -0.19,0.44 -0.3,0.68 -2.73,6.01 -6.72,11.42 -11.96,15.49 -6.14,4.78 -12.96,7.56 -20.81,7.56 -4.19,0 -7.36,-0.87 -11.22,-2.16 -0.29,-0.1 -0.53,-0.18 -0.82,-0.29 -12.11,-4.54 -19.73,-15.05 -21.22,-27.76 -0.11,-0.95 -0.16,-1.77 -0.16,-2.73l0 -0.96c0,-5.12 0.91,-9.23 2.04,-14.14 0.08,-0.33 0.15,-0.62 0.24,-0.95l12.18 -44.17c0.13,-0.5 0.26,-1.01 0.39,-1.51 -5.53,-3.59 -9.94,-8.86 -12.63,-15.42 -1.62,-3.95 -2.46,-8.16 -2.46,-12.43 0,-11.12 5.73,-21.48 14.81,-27.8 5.76,-4.01 12.06,-6.14 19.03,-6.74l0.21 -0.02c2.94,-9.25 5.85,-18.51 8.97,-27.71 9.05,-26.66 18.47,-53.2 28.88,-79.37 1.36,-3.68 3.01,-7.28 4.99,-10.67 3.52,-6.6 8.92,-12.03 15.38,-15.8 0.45,-0.26 0.85,-0.48 1.32,-0.71 0.74,-0.37 1.49,-0.76 2.16,-1.24 0.41,-0.29 0.76,-0.53 1.18,-0.79 5.49,-3.43 11.88,-5.47 18.38,-5.47 15.04,0 27.8,9.85 31.79,24.3 1.08,3.6 1.39,7.01 1.39,10.8l0 51.03c0.16,5.01 0.33,10.02 0.52,15.03 0.67,-0.31 1.36,-0.6 2.05,-0.87 3.74,-1.47 7.78,-2.3 11.8,-2.3 12.74,0 24.4,7.09 30.68,18 7.79,-5.12 16.84,-8.16 26.24,-8.16 12.83,0 24.57,5.38 33.63,14.36 0.71,0.68 1.39,1.38 2.06,2.1 6.23,-8.78 16.28,-13.81 28.68,-13.81l0.96 0c0.27,0 0.5,0 0.78,0.01 12.12,0.4 23.01,4.31 32.22,10.65 1.22,-6.12 3.45,-12.02 6.59,-17.47 5.87,-10.19 16.71,-16.01 28.38,-16.01 2.97,0 5.9,0.46 8.77,1.17 0.91,0.23 1.67,0.46 2.55,0.79 13.08,4.9 21.06,16.96 21.59,30.71 2.22,-1.12 4.53,-2.1 6.93,-2.94 5.54,-2.07 11.16,-3.07 17.08,-3.07 23.42,0 42.18,16.8 46.63,39.53 0.79,3.67 1.2,7.42 1.2,11.18 0,4.87 -0.79,9.74 -2.19,14.39 -0.07,0.24 -0.13,0.44 -0.21,0.67 -1.49,4.48 -3.28,8.71 -5.36,12.68 2.86,1.51 5.53,3.44 7.94,5.77 6.81,6.35 10.62,15.02 10.62,24.36 0,9.23 -3.57,18.01 -9.72,24.85 -12.55,14.43 -27.47,25.32 -46.27,29.89 -5,1.43 -10.18,1.98 -15.38,1.98 -10.03,0 -19.09,-2.61 -26.86,-7.3 -1.69,1.24 -3.52,2.34 -5.49,3.29 -4.64,2.28 -9.52,3.53 -14.73,3.53 -11.09,0 -21.63,-5.67 -28.2,-14.51 -0.03,-0.04 -0.07,-0.09 -0.1,-0.13 -9.78,7.62 -21.54,11.76 -34.63,11.76 -4.7,0 -9.39,-0.44 -13.98,-1.47 -13.17,-2.67 -23.46,-10.43 -31,-21.35 -10.1,10.07 -22.68,16.38 -36.72,19.6 -1.03,11.67 -1.37,23.4 -1.37,35.13 0,0.09 0,0.16 0,0.25l-0.15 14.22c2.31,-0.52 4.71,-0.8 7.2,-0.8 5.93,0 11.76,1.61 16.86,4.54 8.78,-2.09 17.76,-3.1 26.86,-3.1 0.37,0 0.69,0.01 1.06,0.02 38.34,1.74 66.01,26.05 71.98,61.61 2.58,-1.01 5.32,-1.72 8.18,-2.1 3.69,-0.49 7.48,-0.78 11.27,-0.95l1.02 -10.01c0.01,-0.07 0.01,-0.13 0.02,-0.21 0.61,-5.46 2.09,-10.59 4.9,-15.32 5.99,-10.68 16.77,-17.2 29.1,-17.2 1.16,0 2.15,0.07 3.31,0.23l1.68 0.24c0.26,0.04 0.48,0.07 0.74,0.12 13.44,2.37 24.06,12.6 26.86,25.9 0.61,2.51 0.82,4.99 0.82,7.64l0 2.64c0,0.38 -0.01,0.69 -0.03,1.07l-0.16 3.6 29.11 -0.14c0.04,0 0.07,0 0.11,0l12.73 0c4,0 7.8,0.69 11.66,1.66 0.9,0.23 1.66,0.46 2.54,0.79 11.98,4.49 20.43,14.43 21.94,27.28 0.11,0.95 0.16,1.77 0.16,2.73l0 1.44c0,3.82 -0.62,7.47 -1.8,10.87 2.14,-0.38 4.32,-0.58 6.57,-0.58 11.37,0 21.65,5.18 28.77,13.56zm223.26 -313.22c8.53,7.07 14.59,17.19 16.88,28.87 0.79,3.67 1.2,7.42 1.2,11.18 0,4.87 -0.79,9.74 -2.19,14.39 -0.07,0.24 -0.13,0.44 -0.21,0.67 -1.49,4.48 -3.28,8.71 -5.36,12.68 2.87,1.51 5.53,3.44 7.94,5.77 6.81,6.35 10.62,15.02 10.62,24.36 0,9.23 -3.57,18.01 -9.72,24.85 -12.55,14.43 -27.47,25.32 -46.27,29.89 -5,1.43 -10.18,1.98 -15.38,1.98 -9.35,0 -17.87,-2.27 -25.27,-6.38 -4.36,3.11 -9.55,5.17 -15.28,5.77 -0.85,0.09 -1.59,0.13 -2.44,0.13l-1.68 0c-7.98,0 -15.29,-2.71 -21.02,-7.43 -9.4,6.77 -20.78,10.55 -33.02,10.55 -6.89,0 -13.75,-1.23 -20.2,-3.65 -0.14,-0.05 -0.26,-0.1 -0.4,-0.15 -6.72,-2.67 -12.91,-6.15 -18.42,-10.44 -6.99,4.31 -14.61,7.6 -22.94,9.62 -5,1.43 -10.18,1.98 -15.38,1.98 -22.59,0 -40.32,-13.26 -49.24,-33.69 -4.86,-11.14 -6.99,-23.16 -6.99,-35.28l0 -2.16c0,-0.21 0,-0.39 0.01,-0.61 0.59,-22.73 7.09,-44.14 19.16,-63.41 7.81,-12.47 18.71,-22.18 32.72,-27.09 5.54,-2.07 11.16,-3.07 17.08,-3.07 8.32,0 16.05,2.12 22.76,5.87 5.85,-7.89 13.7,-14.06 22.69,-17.82 -0.69,-2.68 -1.05,-5.51 -1.05,-8.43l0 -0.48c0,-0.39 0.01,-0.72 0.03,-1.11 0.78,-16.5 13.33,-29.46 29.59,-31.63 3.69,-0.49 7.48,-0.78 11.27,-0.95l1.02 -10c0.01,-0.07 0.01,-0.14 0.02,-0.21 0.61,-5.46 2.09,-10.59 4.9,-15.32 5.99,-10.69 16.77,-17.2 29.1,-17.2 1.16,0 2.15,0.07 3.31,0.23l1.68 0.24c0.26,0.04 0.48,0.07 0.74,0.12 13.44,2.37 24.06,12.6 26.86,25.91 0.61,2.51 0.82,4.99 0.82,7.64l0 2.64c0,0.37 -0.01,0.69 -0.03,1.07l-0.16 3.6 29.11 -0.14c0.04,0 0.07,0 0.11,0l12.73 0c4,0 7.8,0.69 11.66,1.66 0.9,0.23 1.66,0.46 2.53,0.79 11.98,4.49 20.43,14.43 21.94,27.28 0.11,0.95 0.16,1.77 0.16,2.73l0 1.44c0,11.77 -5.9,21.94 -15.76,28.27 -0.49,0.32 -0.92,0.57 -1.44,0.86 -2.85,1.55 -5.78,2.72 -8.8,3.6zm-508.62 317.83c5.15,-7.23 9.56,-15.09 13.17,-23.64 2.58,-6.09 4.35,-12.8 4.4,-19.44 -0.06,-1.55 -0.33,-5.08 -1.08,-6.44 -1.31,-0.64 -4.62,-0.79 -5.85,-0.79 -2.32,0 -4.73,0.34 -7.14,0.87 -1.39,16.57 -2.61,32.98 -3.51,49.43z"/>
   <path class="fil20" d="M315.24 734.91l-1.2 0c-0.72,0 -1.68,0 -2.64,-0.48 8.17,-25.94 16.81,-50.91 25.94,-76.37 1.44,0.96 0.96,2.16 1.2,3.12 0.48,22.58 1.2,45.15 3.36,67.73l0.24 2.4c0,1.92 -0.96,2.16 -4.32,2.4 -7.45,0.24 -14.89,0.72 -22.58,1.2zm58.84 114.8c1.68,0 3.12,-0.24 4.56,-0.96 3.6,-1.68 5.52,-5.04 5.52,-8.88 0,-0.96 0,-1.92 -0.24,-2.88 -0.48,-2.16 -1.2,-4.32 -1.92,-6.48 -8.17,-23.78 -11.77,-48.51 -14.65,-73.25l-0.24 -1.44c0,-1.68 0.96,-2.4 2.88,-2.88 4.56,-1.92 6.96,-5.28 6.96,-9.37l0 -0.72c-0.24,-4.8 -3.36,-8.17 -8.65,-9.37 -2.88,-0.48 -3.6,-1.68 -3.84,-4.56 -2.16,-23.06 -3.12,-46.11 -3.84,-69.17l0 -51.39c0,-1.44 0,-2.88 -0.48,-4.32 -1.2,-4.8 -5.04,-7.45 -9.37,-7.45 -1.92,0 -4.08,0.72 -6,1.92 -1.68,1.2 -3.36,2.16 -5.28,3.12 -2.88,1.68 -5.28,4.08 -6.72,6.96 -1.44,2.4 -2.64,5.04 -3.6,7.69 -10.33,25.94 -19.69,52.12 -28.58,78.53 -4.32,12.49 -8.17,25.22 -12.25,37.95 -1.44,4.32 -1.44,4.32 -5.77,4.56l-11.29 0.96c-2.88,0.24 -5.28,0.96 -7.69,2.64 -3.12,2.16 -4.8,5.52 -4.8,8.65 0,1.2 0.24,2.4 0.72,3.6 1.68,4.08 5.04,6.24 9.37,6.24l1.92 -0.24c1.92,-0.24 3.6,-0.72 5.52,-0.72 2.4,0 3.36,0 3.36,1.44l-0.48 2.4c-2.16,7.44 -4.56,14.89 -6.48,22.58l-12.25 44.43c-0.72,3.12 -1.44,5.76 -1.44,8.88l0 0.96c0.48,4.08 2.4,7.2 6.24,8.65 1.44,0.48 2.64,0.96 3.84,0.96 2.4,0 4.32,-0.96 6.48,-2.64 2.16,-1.68 3.84,-4.08 5.04,-6.72 1.2,-2.88 2.16,-5.76 2.88,-8.88 6.01,-23.06 12.49,-45.87 19.45,-68.45 1.2,-4.08 1.2,-4.08 5.04,-4.32l32.42 -1.68 1.68 0c2.16,0 2.16,0.48 2.64,3.6 1.44,11.29 2.88,22.58 4.8,33.62 2.4,13.69 5.04,27.14 10.09,40.11 1.68,4.32 3.6,8.17 6.24,11.77 2.16,3.12 5.04,4.56 8.17,4.56zm54.52 -47.79c-1.92,0 -2.64,-0.72 -2.64,-2.64l0.24 -1.68c2.16,-14.17 5.76,-27.86 10.81,-41.31 2.88,-6.96 5.52,-13.93 9.85,-20.41 1.44,-2.16 3.12,-4.56 5.28,-6.48 1.44,-1.44 2.16,-1.92 3.12,-1.92 0.96,0 1.92,0.72 3.12,2.64 1.92,3.12 3.12,6.48 3.6,10.09 0.48,3.36 0.48,6.48 0.72,8.89 -0.96,14.89 -4.56,27.86 -12.49,39.39 -4.56,6.72 -10.57,10.57 -18.01,12.73 -0.72,0.24 -1.2,0.48 -1.92,0.48l-1.68 0.24zm-24.02 127.77c4.8,0 8.88,-2.88 10.57,-7.69 0.72,-2.16 0.96,-4.32 0.96,-6.48l0 -11.29 0.24 -22.82c0,-18.01 0.72,-35.78 3.36,-53.56 0.48,-3.6 0.48,-3.6 4.08,-3.6l5.52 0.24 4.32 -0.48c12.25,-2.4 23.06,-7.69 30.98,-17.53 13.69,-16.81 20.42,-35.78 20.42,-56.44 0,-5.04 -0.48,-10.57 -1.44,-16.09 -1.44,-8.17 -4.8,-15.85 -11.05,-21.86 -5.04,-5.04 -11.05,-7.68 -17.29,-7.68 -5.04,0 -10.33,1.92 -15.13,5.52 -3.12,2.4 -5.76,5.04 -8.17,7.93 -4.8,6.24 -8.65,12.97 -11.53,19.93 -3.36,7.92 -6.24,15.85 -9.12,24.01 0,-3.12 0.24,-6.24 0.48,-9.37 0.24,-8.65 0.96,-17.29 0.96,-25.94l-0.48 -11.77c-0.48,-4.56 -0.96,-9.12 -3.12,-13.21 -2.16,-4.32 -6.48,-6.97 -10.81,-6.97 -0.96,0 -2.16,0.24 -3.36,0.72 -3.84,1.44 -6.48,5.52 -6.48,9.85 0,1.2 0.24,2.64 0.72,3.84 1.44,3.36 1.92,6.72 1.92,10.09l-0.24 5.76c-1.44,16.33 -2.16,32.9 -2.4,49.47 -0.48,13.45 -0.48,27.14 -0.48,40.59 0,29.54 0.96,58.84 3.36,88.38 0.48,5.76 1.2,11.29 1.92,17.05 0.96,5.52 5.28,9.12 10.33,9.37l0.96 0zm119.36 -126.09l-1.44 0c-3.84,0 -6.72,-1.68 -8.41,-5.28 -2.64,-5.04 -4.32,-10.57 -4.32,-16.33 0.24,-14.17 2.4,-28.1 8.17,-41.07 0.96,-2.16 1.92,-4.08 4.56,-4.56 0.72,-0.24 1.44,-0.96 2.4,-1.44 1.44,-1.2 2.16,-1.92 2.88,-1.92 0.96,0 1.68,0.96 3.12,2.4 5.77,5.76 7.69,13.21 8.65,20.89 0.72,4.08 1.2,8.41 1.2,12.49 -0.24,7.93 -1.2,15.37 -4.32,22.57 -1.44,3.36 -3.36,6.48 -6.01,9.13 -1.68,1.68 -3.84,2.88 -6.48,3.12zm-1.2 22.57c10.57,0 19.69,-4.32 26.9,-13.45 2.88,-3.6 5.28,-7.68 7.21,-12.01 4.56,-10.33 6.24,-21.13 6.48,-31.94 -0.24,-9.61 -1.2,-18.73 -3.84,-27.62 -4.56,-15.13 -17.29,-33.38 -38.91,-34.1l-0.96 0c-6.96,0 -10.81,2.88 -12.01,10.33 -0.24,1.68 -0.48,3.12 -1.68,4.32 -3.84,3.84 -6.24,8.88 -8.89,13.69 -6.96,14.41 -9.61,29.54 -9.85,45.15 0,11.77 2.88,22.82 9.61,32.66 4.08,6 9.37,10.57 16.81,12.01 3.12,0.72 6.24,0.96 9.12,0.96zm62.92 2.88c1.68,0 3.12,-0.48 4.56,-1.2 3.6,-1.68 5.52,-4.8 5.52,-9.13 0,-1.2 -0.24,-2.64 -0.48,-4.08l-0.72 -2.64c-0.72,-2.88 -1.2,-6.01 -1.2,-8.89l-0.48 -17.53c0,-15.13 0.96,-30.02 1.92,-45.15l0 -1.68c0,-1.68 -0.24,-3.36 -0.96,-4.8 -1.44,-3.84 -4.56,-6.01 -8.65,-6.24l-0.72 0c-3.84,0 -6.72,1.68 -8.65,5.04 -1.2,2.16 -1.68,4.56 -1.92,6.72 -1.44,15.13 -3.6,30.26 -3.6,45.39l0 2.16c0.24,8.17 0,16.33 1.2,24.5 0.72,4.32 1.68,8.65 4.56,12.25 2.4,3.36 6.24,5.28 9.61,5.28zm0.72 -109.51l1.44 -0.24c4.32,-0.72 7.68,-3.6 8.41,-7.93 0.72,-5.76 0.72,-11.53 1.92,-16.33 0,-5.28 -2.64,-8.89 -6.48,-10.33 -0.96,-0.24 -2.16,-0.48 -3.12,-0.48 -3.36,0 -6.48,1.44 -8.17,4.32 -2.88,5.04 -4.56,10.81 -4.56,16.81 0,1.92 0.24,4.08 0.72,6.24l1.2 2.4c1.68,3.36 5.28,5.52 8.65,5.52zm41.55 41.55l-1.92 0c2.4,-7.2 5.04,-13.93 9.12,-19.93 2.16,-2.88 4.32,-5.28 7.69,-6.96l1.92 -0.48c1.44,0 2.16,0.96 2.4,3.12l0 1.44c0,1.2 -0.24,2.4 -0.72,3.6 -3.6,7.68 -8.89,13.93 -16.33,18.49l-2.16 0.72zm4.8 68.45c2.88,0 6.24,-0.24 9.37,-1.2 14.41,-3.36 25.46,-12.01 34.82,-22.82 2.64,-2.88 3.84,-6.24 3.84,-9.37 0,-2.64 -0.96,-5.28 -3.36,-7.44 -2.16,-2.16 -4.56,-3.12 -7.2,-3.12 -3.12,0 -6.24,1.44 -9.37,4.56 -3.6,3.36 -7.21,6.96 -11.29,10.09 -3.84,3.12 -8.41,5.28 -13.45,6.48l-2.88 0.24c-3.6,0 -5.52,-1.44 -7.45,-5.28 -2.4,-5.52 -3.12,-11.05 -3.36,-17.05 0,-1.92 0.72,-2.4 2.16,-2.4l2.4 0c1.92,0 3.84,-0.24 5.77,-0.96 18.01,-5.52 30.02,-17.29 36.02,-35.3 0.72,-2.4 1.2,-5.04 1.2,-7.69 0,-2.16 -0.24,-4.32 -0.72,-6.48 -2.4,-12.73 -12.25,-20.89 -23.78,-20.89 -3.12,0 -6,0.48 -9.13,1.68 -9.12,3.12 -15.85,9.61 -20.89,17.53 -9.85,15.85 -15.13,33.14 -15.61,51.63l0 2.16c0,8.89 1.44,17.77 5.04,25.94 5.52,12.73 15.37,19.69 27.86,19.69zm130.17 -68.45l-1.92 0c2.4,-7.2 5.04,-13.93 9.12,-19.93 2.16,-2.88 4.32,-5.28 7.69,-6.96l1.92 -0.48c1.44,0 2.16,0.96 2.4,3.12l0 1.44c0,1.2 -0.24,2.4 -0.72,3.6 -3.6,7.68 -8.89,13.93 -16.33,18.49l-2.16 0.72zm4.8 68.45c2.88,0 6.24,-0.24 9.37,-1.2 14.41,-3.36 25.46,-12.01 34.82,-22.82 2.64,-2.88 3.84,-6.24 3.84,-9.37 0,-2.64 -0.96,-5.28 -3.36,-7.44 -2.16,-2.16 -4.56,-3.12 -7.2,-3.12 -3.12,0 -6.24,1.44 -9.37,4.56 -3.6,3.36 -7.21,6.96 -11.29,10.09 -3.84,3.12 -8.41,5.28 -13.45,6.48l-2.88 0.24c-3.6,0 -5.52,-1.44 -7.45,-5.28 -2.4,-5.52 -3.12,-11.05 -3.36,-17.05 0,-1.92 0.72,-2.4 2.16,-2.4l2.4 0c1.92,0 3.84,-0.24 5.77,-0.96 18.01,-5.52 30.02,-17.29 36.02,-35.3 0.72,-2.4 1.2,-5.04 1.2,-7.69 0,-2.16 -0.24,-4.32 -0.72,-6.48 -2.4,-12.73 -12.25,-20.89 -23.78,-20.89 -3.12,0 -6,0.48 -9.13,1.68 -9.12,3.12 -15.85,9.61 -20.89,17.53 -9.85,15.85 -15.13,33.14 -15.61,51.63l0 2.16c0,8.89 1.44,17.77 5.04,25.94 5.52,12.73 15.37,19.69 27.86,19.69zm77.33 2.64c12.25,0 23.06,-6.24 29.3,-17.29 3.36,-5.76 5.04,-11.53 5.04,-17.29 0,-5.52 -1.68,-11.29 -5.04,-16.81 -4.08,-6.72 -9.37,-12.49 -15.13,-17.77l-11.29 -10.33c-4.32,-4.32 -7.45,-9.13 -9.13,-15.13 -0.72,-2.4 -0.96,-4.8 -0.96,-7.2 0,-2.4 0.24,-4.56 0.96,-6.72 1.2,-3.84 4.08,-6 7.44,-6 1.44,0 2.64,0.24 4.08,0.96 2.64,1.2 4.32,3.36 5.77,5.77 2.16,4.32 3.84,9.12 3.84,14.41l0 0.48c0,5.04 3.36,8.65 7.92,9.37l1.92 0.24c4.32,0 7.93,-2.88 9.37,-7.45 0.48,-1.2 0.72,-2.64 0.72,-4.08l0 -2.16c0,-11.29 -3.36,-21.37 -11.05,-30.02 -6.24,-6.96 -14.41,-10.33 -22.34,-10.33 -12.01,0 -24.01,7.44 -28.82,20.41 -1.68,4.8 -2.4,9.61 -2.4,14.41 0,3.36 0.24,6.72 0.96,10.09 2.4,12.49 8.89,22.58 18.01,30.98 4.32,4.08 8.89,7.93 13.21,12.25 2.88,2.64 5.52,5.77 7.69,9.37 0.96,1.68 1.44,3.36 1.44,5.28 0,1.44 -0.24,2.88 -0.96,4.32 -1.92,4.8 -6,7.69 -10.57,7.69 -1.92,0 -3.84,-0.48 -6,-1.44 -7.45,-4.08 -12.97,-9.61 -12.97,-18.73 0,-1.2 -0.24,-2.16 -0.72,-3.36 -1.2,-4.32 -4.56,-7.21 -8.89,-7.69l-1.2 0c-3.84,0 -7.44,2.16 -9.37,5.76 -1.44,3.12 -2.16,6.24 -2.16,9.37 0,3.36 0.72,6.48 2.16,9.85 5.04,12.73 14.41,21.62 27.14,26.66 3.84,1.44 7.93,2.16 12.01,2.16zm55.72 -3.12c4.56,-0.48 7.93,-4.32 8.41,-9.37l0 -1.2 -0.24 -3.36c-1.68,-19.69 -3.12,-39.39 -3.12,-59.08l0 -4.08c0,-23.3 1.2,-46.59 2.16,-68.45l0.24 -3.12c0,-1.68 0.72,-2.4 2.4,-2.4l4.08 -0.24 12.49 0c1.92,0 3.6,0 5.52,0.24l22.1 0c6.96,-0.48 13.69,0 20.65,-1.2 2.88,-0.48 5.76,-1.2 8.41,-2.64 3.36,-2.16 5.04,-5.04 5.04,-8.65l0 -1.44c-0.48,-4.08 -3.12,-6.72 -6.96,-8.17 -1.92,-0.48 -4.08,-0.96 -6.01,-0.96l-12.73 0 -51.64 0.24c-1.68,0 -1.92,-0.24 -1.92,-1.92l1.2 -26.18 0 -2.64c0,-0.72 0,-1.68 -0.24,-2.4 -0.72,-4.32 -4.08,-7.44 -8.17,-8.17l-1.68 -0.24c-3.84,0 -6.96,1.92 -8.88,5.52 -1.2,1.92 -1.68,4.08 -1.92,6.24l-2.16 21.13c-1.2,8.88 0.48,9.61 -5.77,9.61l-4.08 0c-7.44,0 -14.89,0.24 -20.41,0.96 -5.28,0.72 -9.13,4.56 -9.37,9.61l0 0.48c0,5.04 3.36,8.89 8.65,10.09 1.92,0.48 11.77,0.48 15.13,0.48 3.12,0 6.48,0 9.85,0.48l1.92 0c1.44,0 1.68,0.24 1.68,1.68l-1.92 52.12 -0.24 21.61c0,17.29 0.48,33.86 2.64,49.96 0.96,6.24 1.92,12.49 3.84,18.49 1.44,4.56 5.04,6.97 9.37,6.97l1.68 0zm38.19 -67.97l-1.92 0c2.4,-7.2 5.04,-13.93 9.12,-19.93 2.16,-2.88 4.32,-5.28 7.69,-6.96l1.92 -0.48c1.44,0 2.16,0.96 2.4,3.12l0 1.44c0,1.2 -0.24,2.4 -0.72,3.6 -3.6,7.68 -8.89,13.93 -16.33,18.49l-2.16 0.72zm4.8 68.45c2.88,0 6.24,-0.24 9.37,-1.2 14.41,-3.36 25.46,-12.01 34.82,-22.82 2.64,-2.88 3.84,-6.24 3.84,-9.37 0,-2.64 -0.96,-5.28 -3.36,-7.44 -2.16,-2.16 -4.56,-3.12 -7.2,-3.12 -3.12,0 -6.24,1.44 -9.37,4.56 -3.6,3.36 -7.21,6.96 -11.29,10.09 -3.84,3.12 -8.41,5.28 -13.45,6.48l-2.88 0.24c-3.6,0 -5.52,-1.44 -7.45,-5.28 -2.4,-5.52 -3.12,-11.05 -3.36,-17.05 0,-1.92 0.72,-2.4 2.16,-2.4l2.4 0c1.92,0 3.84,-0.24 5.77,-0.96 18.01,-5.52 30.02,-17.29 36.02,-35.3 0.72,-2.4 1.2,-5.04 1.2,-7.69 0,-2.16 -0.24,-4.32 -0.72,-6.48 -2.4,-12.73 -12.25,-20.89 -23.78,-20.89 -3.12,0 -6,0.48 -9.13,1.68 -9.12,3.12 -15.85,9.61 -20.89,17.53 -9.85,15.85 -15.13,33.14 -15.61,51.63l0 2.16c0,8.89 1.44,17.77 5.04,25.94 5.52,12.73 15.37,19.69 27.86,19.69zm-490.53 240.65l-0.48 0c0,-42.51 2.4,-74.21 6.24,-118.16 0,-1.44 0.24,-2.64 1.68,-3.36 9.13,-3.36 18.01,-6.24 27.62,-6.24 18.97,0 29.78,9.37 30.26,30.26 0,9.85 -2.4,19.69 -6.24,28.82 -12.01,28.34 -31.46,50.43 -56.68,67.73 -0.72,0.48 -1.2,0.96 -2.4,0.96zm-8.65 111.2c6.72,-0.72 10.09,-7.2 10.09,-13.69l-1.92 -65.8c0,-0.96 0,-2.16 0.72,-3.36 10.33,9.13 20.65,17.53 29.54,27.62 8.41,9.37 16.57,19.45 24.02,29.54 5.76,7.69 12.25,15.61 19.21,15.61 5.28,0 10.33,-4.8 10.33,-10.33 0,-6.48 -7.69,-14.17 -12.97,-20.65 -13.69,-18.49 -29.3,-38.43 -49.47,-53.56 -0.72,-0.48 -0.96,-0.96 -0.96,-1.44 0,-0.72 0.48,-1.2 1.2,-1.68 27.14,-21.13 46.11,-43.47 58.6,-73.49 5.04,-12.01 8.41,-24.26 8.41,-37.23 0,-30.26 -19.21,-51.64 -50.91,-53.08 -9.85,0 -19.45,1.44 -28.82,4.56 -1.2,0.48 -2.4,0.72 -3.36,0.72 -1.92,0 -2.16,-1.2 -4.08,-3.6 -2.16,-2.16 -5.04,-3.12 -7.45,-3.12 -5.76,0 -10.33,5.52 -10.33,12.01l0 2.16c0,2.4 -1.2,3.6 -3.36,4.8 -5.76,3.36 -12.25,7.21 -12.25,13.69 0,5.53 4.08,11.29 10.57,11.53 3.6,0.24 4.08,0.24 4.08,2.4 0,3.84 0,1.68 -0.48,5.52 -3.12,35.78 -5.04,66.77 -5.04,103.27 0,45.87 0.72,43.95 1.92,87.9 0.24,3.84 0,8.17 1.68,12.01 1.92,5.04 5.76,7.69 10.33,7.69l0.72 0zm102.07 -98.23l-1.92 0c2.4,-7.2 5.04,-13.93 9.12,-19.93 2.16,-2.88 4.32,-5.28 7.69,-6.96l1.92 -0.48c1.44,0 2.16,0.96 2.4,3.12l0 1.44c0,1.2 -0.24,2.4 -0.72,3.6 -3.6,7.68 -8.89,13.93 -16.33,18.49l-2.16 0.72zm4.8 68.45c2.88,0 6.24,-0.24 9.37,-1.2 14.41,-3.36 25.46,-12.01 34.82,-22.82 2.64,-2.88 3.84,-6.24 3.84,-9.37 0,-2.64 -0.96,-5.28 -3.36,-7.44 -2.16,-2.16 -4.56,-3.12 -7.2,-3.12 -3.12,0 -6.24,1.44 -9.37,4.56 -3.6,3.36 -7.21,6.96 -11.29,10.09 -3.84,3.12 -8.41,5.28 -13.45,6.48l-2.88 0.24c-3.6,0 -5.52,-1.44 -7.45,-5.28 -2.4,-5.52 -3.12,-11.05 -3.36,-17.05 0,-1.92 0.72,-2.4 2.16,-2.4l2.4 0c1.92,0 3.84,-0.24 5.77,-0.96 18.01,-5.52 30.02,-17.29 36.02,-35.3 0.72,-2.4 1.2,-5.04 1.2,-7.69 0,-2.16 -0.24,-4.32 -0.72,-6.48 -2.4,-12.73 -12.25,-20.89 -23.78,-20.89 -3.12,0 -6,0.48 -9.13,1.68 -9.12,3.12 -15.85,9.61 -20.89,17.53 -9.85,15.85 -15.13,33.14 -15.61,51.63l0 2.16c0,8.89 1.44,17.77 5.04,25.94 5.52,12.73 15.37,19.69 27.86,19.69zm66.52 -0.48c4.56,-0.48 7.93,-4.32 8.41,-9.37l0 -1.2 -0.24 -3.36c-1.68,-19.69 -3.12,-39.39 -3.12,-59.08l0 -4.08c0,-23.3 1.2,-46.59 2.16,-68.45l0.24 -3.12c0,-1.68 0.72,-2.4 2.4,-2.4l4.08 -0.24 12.49 0c1.92,0 3.6,0 5.52,0.24l22.1 0c6.96,-0.48 13.69,0 20.65,-1.2 2.88,-0.48 5.76,-1.2 8.41,-2.64 3.36,-2.16 5.04,-5.04 5.04,-8.65l0 -1.44c-0.48,-4.08 -3.12,-6.72 -6.96,-8.17 -1.92,-0.48 -4.08,-0.96 -6.01,-0.96l-12.73 0 -51.64 0.24c-1.68,0 -1.92,-0.24 -1.92,-1.92l1.2 -26.18 0 -2.64c0,-0.72 0,-1.68 -0.24,-2.4 -0.72,-4.32 -4.08,-7.44 -8.17,-8.17l-1.68 -0.24c-3.84,0 -6.96,1.92 -8.88,5.52 -1.2,1.92 -1.68,4.08 -1.92,6.24l-2.16 21.13c-1.2,8.88 0.48,9.61 -5.77,9.61l-4.08 0c-7.44,0 -14.89,0.24 -20.41,0.96 -5.28,0.72 -9.13,4.56 -9.37,9.61l0 0.48c0,5.04 3.36,8.89 8.65,10.09 1.92,0.48 11.77,0.48 15.13,0.48 3.12,0 6.48,0 9.85,0.48l1.92 0c1.44,0 1.68,0.24 1.68,1.68l-1.92 52.12 -0.24 21.61c0,17.29 0.48,33.86 2.64,49.96 0.96,6.24 1.92,12.49 3.84,18.49 1.44,4.56 5.04,6.97 9.37,6.97l1.68 0zm30.26 0c1.68,0 3.12,-0.48 4.56,-1.2 3.6,-1.68 5.52,-4.8 5.52,-9.13 0,-1.2 -0.24,-2.64 -0.48,-4.08l-0.72 -2.64c-0.72,-2.88 -1.2,-6.01 -1.2,-8.89l-0.48 -17.53c0,-15.13 0.96,-30.02 1.92,-45.15l0 -1.68c0,-1.68 -0.24,-3.36 -0.96,-4.8 -1.44,-3.84 -4.56,-6.01 -8.65,-6.24l-0.72 0c-3.84,0 -6.72,1.68 -8.65,5.04 -1.2,2.16 -1.68,4.56 -1.92,6.72 -1.44,15.13 -3.6,30.26 -3.6,45.39l0 2.16c0.24,8.17 0,16.33 1.2,24.5 0.72,4.32 1.68,8.65 4.56,12.25 2.4,3.36 6.24,5.28 9.61,5.28zm0.72 -109.51l1.44 -0.24c4.32,-0.72 7.68,-3.6 8.41,-7.93 0.72,-5.76 0.72,-11.53 1.92,-16.33 0,-5.28 -2.64,-8.89 -6.48,-10.33 -0.96,-0.24 -2.16,-0.48 -3.12,-0.48 -3.36,0 -6.48,1.44 -8.17,4.32 -2.88,5.04 -4.56,10.81 -4.56,16.81 0,1.92 0.24,4.08 0.72,6.24l1.2 2.4c1.68,3.36 5.28,5.52 8.65,5.52zm34.82 110.71c2.16,0 4.08,-0.48 6.24,-1.44 4.8,-2.64 6.96,-6.72 7.44,-11.77 1.44,-14.89 5.28,-29.06 9.85,-43.23 5.28,-16.57 12.01,-32.42 19.45,-41.31 0.48,-0.72 0.72,-1.68 1.92,-1.68l0.72 0 0 11.05c0,2.64 0.24,5.04 1.2,7.44 1.44,4.08 4.32,6.48 8.65,6.96l1.44 0c3.6,0 6.48,-1.68 8.41,-4.8 1.2,-1.68 1.92,-3.36 2.16,-5.28 0.48,-4.08 0.96,-8.17 0.96,-12.25 0,-8.17 -1.2,-16.09 -3.6,-23.78l-1.2 -2.4c-2.88,-5.52 -7.92,-8.65 -13.21,-8.65 -2.64,0 -5.04,0.72 -7.69,1.92 -5.76,2.88 -10.09,7.69 -14.17,12.97 -5.28,6 -12.97,17.29 -18.25,30.26 -0.24,0.96 -0.48,1.92 -1.44,2.16 -0.48,-0.24 -0.48,-0.48 -0.48,-0.72l0 -0.48c1.2,-13.93 0.72,-28.1 1.68,-35.54l0 -1.2c0,-4.32 -2.16,-7.69 -6.01,-9.13 -1.2,-0.72 -2.64,-0.96 -3.84,-0.96 -2.88,0 -5.52,1.44 -7.69,3.6 -2.16,2.64 -3.36,5.76 -3.6,9.13 -0.72,5.52 -1.92,18.01 -2.88,30.26 -0.96,12.25 -1.44,24.5 -1.44,36.75 0,8.17 0.24,16.33 0.96,24.5 0.72,6.72 1.44,13.69 3.84,19.93 1.92,5.04 6.01,7.68 10.57,7.68zm103.75 -26.66l-1.44 0c-3.84,0 -6.72,-1.68 -8.41,-5.28 -2.64,-5.04 -4.32,-10.57 -4.32,-16.33 0.24,-14.17 2.4,-28.1 8.17,-41.07 0.96,-2.16 1.92,-4.08 4.56,-4.56 0.72,-0.24 1.44,-0.96 2.4,-1.44 1.44,-1.2 2.16,-1.92 2.88,-1.92 0.96,0 1.68,0.96 3.12,2.4 5.77,5.76 7.69,13.21 8.65,20.89 0.72,4.08 1.2,8.41 1.2,12.49 -0.24,7.93 -1.2,15.37 -4.32,22.57 -1.44,3.36 -3.36,6.48 -6.01,9.13 -1.68,1.68 -3.84,2.88 -6.48,3.12zm-1.2 22.57c10.57,0 19.69,-4.32 26.9,-13.45 2.88,-3.6 5.28,-7.68 7.21,-12.01 4.56,-10.33 6.24,-21.13 6.48,-31.94 -0.24,-9.61 -1.2,-18.73 -3.84,-27.62 -4.56,-15.13 -17.29,-33.38 -38.91,-34.1l-0.96 0c-6.96,0 -10.81,2.88 -12.01,10.33 -0.24,1.68 -0.48,3.12 -1.68,4.32 -3.84,3.84 -6.24,8.88 -8.89,13.69 -6.96,14.41 -9.61,29.54 -9.85,45.15 0,11.77 2.88,22.82 9.61,32.66 4.08,6 9.37,10.57 16.81,12.01 3.12,0.72 6.24,0.96 9.12,0.96z"/>
   <path class="fil12" d="M219.72 1027.04l-4.13 -5.68c-5,-4.55 -7.36,-6.66 -11.1,-9.71 -3.48,18.77 -103.79,69.69 -111.3,89.65 12.52,-0.84 105.33,-70.08 126.54,-74.27z"/>
   <path class="fil12" d="M888.62 1210.61c4.97,-9.16 3.97,-7.43 11.57,-13.54l121.14 115.98c-7.6,-2.75 -13.11,-7.27 -18.94,-12.2l-48.16 -39.32c-19.31,-14.95 -54.12,-46.92 -65.61,-50.92z"/>
   <path class="fil12" d="M243.17 577.07c-2.87,3.67 -0.81,2.44 -6.69,7.08 -4.6,3.63 -6.27,4.03 -11.88,7.27 -1.13,-9.7 -46.67,-38.78 -57.32,-45.48l-48.26 -33.05c-1.15,-0.79 -6.83,-4.6 -7.58,-5.27l-8.29 -10.86c32.84,6.18 117.94,83.68 140.03,80.31z"/>
  </g>
 </g>
</svg>
