<?xml version="1.0" encoding="UTF-8"?>
<!DOCTYPE svg PUBLIC "-//W3C//DTD SVG 1.0//EN" "http://www.w3.org/TR/2001/REC-SVG-20010904/DTD/svg10.dtd">
<!-- Creator: CorelDRAW 2020 (64 Bit) -->
<svg xmlns="http://www.w3.org/2000/svg" xml:space="preserve" width="60.0237mm" height="56.7894mm" version="1.0" style="shape-rendering:geometricPrecision; text-rendering:geometricPrecision; image-rendering:optimizeQuality; fill-rule:evenodd; clip-rule:evenodd"
viewBox="0 0 1388.47 1313.65"
 xmlns:xlink="http://www.w3.org/1999/xlink"
 xmlns:xodm="http://www.corel.com/coreldraw/odm/2003">
 <defs>
  <style type="text/css">
   <![CDATA[
    .fil0 {fill:#1A689D}
   ]]>
  </style>
 </defs>
 <g id="Camada_x0020_1">
  <metadata id="CorelCorpID_0Corel-Layer"/>
  <path class="fil0" d="M1388.47 266.25l-121.02 0 0 -105.62 121.02 105.62zm-367.47 224.44l-101.22 -105.62 222.24 -242.05 92.42 0 0 347.67 -213.44 0zm189.24 41.81l-664.53 0 189.24 499.5 475.29 -499.5zm-668.93 88.02l2.2 693.13 224.44 -114.42 -226.64 -578.71zm2.2 -121.02l0 -462.09 429.08 451.09 -429.08 11zm-33.01 -22.01l0 -477.49 -464.29 17.6 464.29 459.89zm-286.05 -231.04l-156.23 -151.83 -68.21 19.81 224.44 132.02z"/>
 </g>
</svg>
